<svg width="68" height="83" viewBox="0 0 68 83" fill="none" xmlns="http://www.w3.org/2000/svg">
<g filter="url(#filter0_d)">
<rect x="4" y="2" width="60" height="60" rx="2.4" fill="#2E2E2E"/>
</g>
<g filter="url(#filter1_d)">
<path d="M41.95 43.0875V36.15C41.95 33.15 42.0375 30.425 42.2125 27.975C42.4125 25.5 42.8375 23.2125 43.4875 21.1125C41.5125 20.8125 39.4875 20.4625 37.4125 20.0625C35.3375 19.6375 33.3 19.2375 31.3 18.8625C29.325 18.4875 27.4375 18.175 25.6375 17.925C23.8625 17.65 22.2625 17.5125 20.8375 17.5125C18.9125 17.5125 17.3125 17.675 16.0375 18C14.7625 18.3 13.7375 18.7125 12.9625 19.2375C12.1875 19.7625 11.6375 20.375 11.3125 21.075C11.0125 21.75 10.8625 22.475 10.8625 23.25C10.8625 24.025 11.0375 24.7375 11.3875 25.3875C11.7625 26.0375 12.2875 26.6125 12.9625 27.1125C13.6375 27.5875 14.4375 27.9625 15.3625 28.2375C16.3125 28.5125 17.3625 28.65 18.5125 28.65C19.7875 28.65 20.9125 28.5125 21.8875 28.2375C22.8875 27.9375 23.7375 27.6125 24.4375 27.2625C25.2625 26.8625 25.9875 26.4 26.6125 25.875L27.3625 27.4875C26.5875 28.0625 25.7375 28.575 24.8125 29.025C24.0125 29.425 23.075 29.7875 22 30.1125C20.95 30.4125 19.7875 30.5625 18.5125 30.5625C16.8375 30.5625 15.35 30.3375 14.05 29.8875C12.775 29.4375 11.7 28.8375 10.825 28.0875C9.94998 27.3125 9.28748 26.4125 8.83748 25.3875C8.38748 24.3625 8.16248 23.275 8.16248 22.125C8.16248 20.9 8.37498 19.7125 8.79998 18.5625C9.19998 17.4125 9.88748 16.3875 10.8625 15.4875C11.8125 14.5875 13.075 13.875 14.65 13.35C16.225 12.8 18.1625 12.525 20.4625 12.525C22.5875 12.525 24.7125 12.7 26.8375 13.05C28.9875 13.375 31.1 13.7875 33.175 14.2875C35.275 14.7625 37.3125 15.2875 39.2875 15.8625C41.2875 16.4125 43.2 16.9125 45.025 17.3625C46.1 15.3875 47.4375 13.8125 49.0375 12.6375C50.6375 11.4375 52.375 10.8375 54.25 10.8375C55.05 10.8375 55.7625 10.975 56.3875 11.25C57.0125 11.5 57.5375 11.8375 57.9625 12.2625C58.3875 12.6875 58.7 13.1875 58.9 13.7625C59.125 14.3125 59.2375 14.9 59.2375 15.525C59.2375 16.575 58.9875 17.4875 58.4875 18.2625C58.0125 19.0125 57.35 19.65 56.5 20.175C55.65 20.675 54.65 21.05 53.5 21.3C52.35 21.525 51.1125 21.6375 49.7875 21.6375C49.4875 21.6375 49.175 21.6375 48.85 21.6375C48.55 21.6375 48.25 21.6125 47.95 21.5625C47.75 22.8125 47.5875 24.2125 47.4625 25.7625C47.3625 27.2875 47.3125 29.0125 47.3125 30.9375V43.0875H52.3375L51.55 45.375H47.3125V54.6C47.3125 56.7 47.2875 58.5375 47.2375 60.1125C47.1875 61.6625 47.05 63.05 46.825 64.275C46.6 65.475 46.2625 66.5625 45.8125 67.5375C45.3625 68.4875 44.7375 69.425 43.9375 70.35C42.5625 71.925 40.65 73.2125 38.2 74.2125C35.75 75.2125 32.775 75.7125 29.275 75.7125C27.125 75.7125 25.075 75.4125 23.125 74.8125C21.175 74.2125 19.4625 73.375 17.9875 72.3C16.5125 71.225 15.3375 69.9375 14.4625 68.4375C13.5875 66.9375 13.15 65.275 13.15 63.45C13.15 62.1 13.3625 60.8875 13.7875 59.8125C14.2375 58.7375 14.8125 57.7875 15.5125 56.9625C16.2125 56.1125 16.975 55.3875 17.8 54.7875C18.65 54.1875 19.475 53.6875 20.275 53.2875C21.075 52.8875 21.8 52.575 22.45 52.35C23.1 52.125 23.5875 51.975 23.9125 51.9L24.6625 53.4375C24.0875 53.7375 23.4375 54.15 22.7125 54.675C22.0125 55.175 21.35 55.825 20.725 56.625C20.1 57.4 19.575 58.35 19.15 59.475C18.725 60.6 18.5125 61.925 18.5125 63.45C18.5125 65.075 18.7875 66.5375 19.3375 67.8375C19.8875 69.1125 20.65 70.2 21.625 71.1C22.625 71.975 23.8 72.65 25.15 73.125C26.525 73.575 28.025 73.8 29.65 73.8C31.475 73.8 33.1375 73.55 34.6375 73.05C36.1625 72.55 37.4625 71.7125 38.5375 70.5375C39.6125 69.3625 40.45 67.8 41.05 65.85C41.65 63.9 41.95 61.475 41.95 58.575V45.375H34.675L35.425 43.0875H41.95ZM54.25 12.9C53.125 12.9 52.0875 13.3125 51.1375 14.1375C50.1875 14.9375 49.4 16.3125 48.775 18.2625C49.55 18.3875 50.3 18.4875 51.025 18.5625C51.75 18.6375 52.4375 18.675 53.0875 18.675C53.7625 18.675 54.3375 18.5875 54.8125 18.4125C55.3125 18.2125 55.7125 17.9625 56.0125 17.6625C56.3125 17.3625 56.5375 17.025 56.6875 16.65C56.8375 16.275 56.9125 15.9 56.9125 15.525C56.9125 14.8 56.6625 14.1875 56.1625 13.6875C55.6625 13.1625 55.025 12.9 54.25 12.9Z" fill="white"/>
<path d="M41.95 43.0875V44.0875H42.95V43.0875H41.95ZM42.2125 27.975L41.2157 27.8945L41.215 27.9038L42.2125 27.975ZM43.4875 21.1125L44.4428 21.4082L44.7863 20.2983L43.6377 20.1239L43.4875 21.1125ZM37.4125 20.0625L37.2118 21.0422L37.2232 21.0444L37.4125 20.0625ZM31.3 18.8625L31.1134 19.845L31.1157 19.8454L31.3 18.8625ZM25.6375 17.925L25.4844 18.9132L25.4921 18.9144L25.4999 18.9155L25.6375 17.925ZM16.0375 18L16.2665 18.9734L16.2755 18.9713L16.2845 18.969L16.0375 18ZM12.9625 19.2375L12.4016 18.4096L12.9625 19.2375ZM11.3125 21.075L10.4055 20.6539L10.402 20.6614L10.3987 20.6689L11.3125 21.075ZM11.3875 25.3875L10.507 25.8616L10.514 25.8745L10.5213 25.8872L11.3875 25.3875ZM12.9625 27.1125L12.3673 27.9161L12.377 27.9233L12.387 27.9303L12.9625 27.1125ZM15.3625 28.2375L15.0775 29.1961L15.0844 29.1981L15.3625 28.2375ZM21.8875 28.2375L22.1589 29.2L22.1669 29.1977L22.1748 29.1953L21.8875 28.2375ZM24.4375 27.2625L24.0012 26.3626L23.9903 26.3681L24.4375 27.2625ZM26.6125 25.875L27.5192 25.4533L26.9687 24.2698L25.9693 25.1093L26.6125 25.875ZM27.3625 27.4875L27.9583 28.2906L28.613 27.8049L28.2692 27.0658L27.3625 27.4875ZM24.8125 29.025L24.375 28.1257L24.3653 28.1306L24.8125 29.025ZM22 30.1125L22.2747 31.074L22.2821 31.0719L22.2894 31.0697L22 30.1125ZM14.05 29.8875L13.7172 30.8305L13.7229 30.8325L14.05 29.8875ZM10.825 28.0875L10.1619 28.8361L10.168 28.8415L10.1742 28.8468L10.825 28.0875ZM8.79998 18.5625L9.73798 18.9092L9.74131 18.9001L9.74448 18.891L8.79998 18.5625ZM10.8625 15.4875L11.5408 16.2224L11.5502 16.2135L10.8625 15.4875ZM14.65 13.35L14.9662 14.2987L14.973 14.2965L14.9797 14.2941L14.65 13.35ZM26.8375 13.05L26.675 14.0368L26.688 14.0388L26.8375 13.05ZM33.175 14.2875L32.9407 15.2598L32.9544 15.2629L33.175 14.2875ZM39.2875 15.8625L39.0079 16.8227L39.0151 16.8247L39.0223 16.8267L39.2875 15.8625ZM45.025 17.3625L44.7856 18.3334L45.5345 18.5181L45.9033 17.8406L45.025 17.3625ZM49.0375 12.6375L49.6294 13.4436L49.6375 13.4375L49.0375 12.6375ZM56.3875 11.25L55.9847 12.1653L56.0003 12.1722L56.0161 12.1785L56.3875 11.25ZM58.9 13.7625L57.9555 14.091L57.9643 14.1163L57.9744 14.1411L58.9 13.7625ZM58.4875 18.2625L57.6472 17.7204L57.6427 17.7275L58.4875 18.2625ZM56.5 20.175L57.007 21.037L57.0163 21.0315L57.0255 21.0258L56.5 20.175ZM53.5 21.3L53.692 22.2814L53.7022 22.2794L53.7124 22.2772L53.5 21.3ZM47.95 21.5625L48.1144 20.5761L47.1216 20.4107L46.9625 21.4045L47.95 21.5625ZM47.4625 25.7625L46.4657 25.6821L46.4651 25.6896L46.4646 25.6971L47.4625 25.7625ZM47.3125 43.0875H46.3125V44.0875H47.3125V43.0875ZM52.3375 43.0875L53.283 43.413L53.7393 42.0875H52.3375V43.0875ZM51.55 45.375V46.375H52.2633L52.4955 45.7005L51.55 45.375ZM47.3125 45.375V44.375H46.3125V45.375H47.3125ZM47.2375 60.1125L48.237 60.1448L48.237 60.1442L47.2375 60.1125ZM46.825 64.275L47.8079 64.4593L47.8085 64.4557L46.825 64.275ZM45.8125 67.5375L46.7163 67.9656L46.7204 67.9566L45.8125 67.5375ZM43.9375 70.35L44.6908 71.0077L44.6938 71.0042L43.9375 70.35ZM13.7875 59.8125L12.865 59.4264L12.8612 59.4356L12.8575 59.4449L13.7875 59.8125ZM15.5125 56.9625L16.275 57.6095L16.2797 57.6039L16.2844 57.5982L15.5125 56.9625ZM17.8 54.7875L17.2232 53.9705L17.2118 53.9788L17.8 54.7875ZM20.275 53.2875L20.7222 54.1819L20.275 53.2875ZM23.9125 51.9L24.8113 51.4616L24.4626 50.7468L23.6876 50.9256L23.9125 51.9ZM24.6625 53.4375L25.125 54.3241L25.988 53.8739L25.5613 52.9991L24.6625 53.4375ZM22.7125 54.675L23.2937 55.4888L23.299 55.485L22.7125 54.675ZM20.725 56.625L21.5034 57.2528L21.5082 57.2468L21.513 57.2407L20.725 56.625ZM19.3375 67.8375L18.4165 68.2272L18.4193 68.2336L19.3375 67.8375ZM21.625 71.1L20.9467 71.8348L20.9565 71.8438L20.9665 71.8526L21.625 71.1ZM25.15 73.125L24.8181 74.0683L24.8285 74.072L24.8389 74.0754L25.15 73.125ZM34.6375 73.05L34.3259 72.0998L34.3213 72.1013L34.6375 73.05ZM38.5375 70.5375L37.7997 69.8625L38.5375 70.5375ZM41.95 45.375H42.95V44.375H41.95V45.375ZM34.675 45.375L33.7248 45.0635L33.2947 46.375H34.675V45.375ZM35.425 43.0875V42.0875H34.7005L34.4748 42.776L35.425 43.0875ZM51.1375 14.1375L51.7816 14.9024L51.7874 14.8975L51.7932 14.8925L51.1375 14.1375ZM48.775 18.2625L47.8227 17.9573L47.4678 19.0646L48.6157 19.2498L48.775 18.2625ZM54.8125 18.4125L55.1582 19.3509L55.1711 19.3461L55.1839 19.341L54.8125 18.4125ZM56.1625 13.6875L55.4383 14.3772L55.4468 14.386L55.4554 14.3946L56.1625 13.6875ZM42.95 43.0875V36.15H40.95V43.0875H42.95ZM42.95 36.15C42.95 33.1688 43.037 30.4681 43.2099 28.0463L41.215 27.9038C41.038 30.382 40.95 33.1312 40.95 36.15H42.95ZM43.2092 28.0556C43.4041 25.6443 43.817 23.4299 44.4428 21.4082L42.5322 20.8168C41.858 22.9951 41.4209 25.3557 41.2157 27.8945L43.2092 28.0556ZM43.6377 20.1239C41.6765 19.826 39.6645 19.4782 37.6018 19.0806L37.2232 21.0444C39.3104 21.4468 41.3485 21.7991 43.3373 22.1012L43.6377 20.1239ZM37.6131 19.0829C35.5329 18.6568 33.49 18.2557 31.4843 17.8796L31.1157 19.8454C33.11 20.2193 35.1421 20.6182 37.2118 21.0422L37.6131 19.0829ZM31.4865 17.8801C29.497 17.5023 27.5931 17.187 25.7751 16.9345L25.4999 18.9155C27.2819 19.163 29.153 19.4727 31.1134 19.845L31.4865 17.8801ZM25.7906 16.9368C23.9773 16.6559 22.3249 16.5125 20.8375 16.5125V18.5125C22.2 18.5125 23.7476 18.6442 25.4844 18.9132L25.7906 16.9368ZM20.8375 16.5125C18.8638 16.5125 17.174 16.6783 15.7905 17.031L16.2845 18.969C17.4509 18.6717 18.9611 18.5125 20.8375 18.5125V16.5125ZM15.8084 17.0266C14.4587 17.3442 13.309 17.7949 12.4016 18.4096L13.5233 20.0654C14.166 19.6301 15.0663 19.2558 16.2665 18.9734L15.8084 17.0266ZM12.4016 18.4096C11.5085 19.0146 10.8216 19.7576 10.4055 20.6539L12.2195 21.4961C12.4533 20.9925 12.8665 20.5104 13.5233 20.0654L12.4016 18.4096ZM10.3987 20.6689C10.0391 21.478 9.86248 22.3421 9.86248 23.25H11.8625C11.8625 22.6079 11.9859 22.022 12.2263 21.4812L10.3987 20.6689ZM9.86248 23.25C9.86248 24.182 10.0746 25.0586 10.507 25.8616L12.268 24.9134C12.0004 24.4164 11.8625 23.8681 11.8625 23.25H9.86248ZM10.5213 25.8872C10.9726 26.6695 11.5952 27.3442 12.3673 27.9161L13.5577 26.309C12.9797 25.8808 12.5524 25.4056 12.2537 24.8878L10.5213 25.8872ZM12.387 27.9303C13.1641 28.4772 14.0658 28.8953 15.0775 29.1961L15.6475 27.279C14.8091 27.0297 14.1109 26.6978 13.538 26.2947L12.387 27.9303ZM15.0844 29.1981C16.1381 29.5031 17.2833 29.65 18.5125 29.65V27.65C17.4416 27.65 16.4869 27.5219 15.6405 27.277L15.0844 29.1981ZM18.5125 29.65C19.8567 29.65 21.0763 29.5053 22.1589 29.2L21.616 27.2751C20.7487 27.5197 19.7182 27.65 18.5125 27.65V29.65ZM22.1748 29.1953C23.2129 28.8839 24.1196 28.5395 24.8847 28.1569L23.9903 26.3681C23.3554 26.6855 22.5621 26.9911 21.6001 27.2797L22.1748 29.1953ZM24.8738 28.1623C25.764 27.7307 26.5603 27.2248 27.2557 26.6407L25.9693 25.1093C25.4147 25.5752 24.7609 25.9943 24.0012 26.3627L24.8738 28.1623ZM25.7058 26.2967L26.4558 27.9092L28.2692 27.0658L27.5192 25.4533L25.7058 26.2967ZM26.7666 26.6844C26.0445 27.2202 25.248 27.7011 24.375 28.1258L25.2499 29.9243C26.227 29.4489 27.1305 28.9048 27.9583 28.2906L26.7666 26.6844ZM24.3653 28.1306C23.6269 28.4998 22.7444 28.8428 21.7106 29.1553L22.2894 31.0697C23.4056 30.7323 24.3981 30.3503 25.2597 29.9194L24.3653 28.1306ZM21.7253 29.151C20.7781 29.4216 19.7097 29.5625 18.5125 29.5625V31.5625C19.8653 31.5625 21.1219 31.4034 22.2747 31.074L21.7253 29.151ZM18.5125 29.5625C16.9254 29.5625 15.5518 29.3492 14.3771 28.9425L13.7229 30.8325C15.1481 31.3259 16.7495 31.5625 18.5125 31.5625V29.5625ZM14.3828 28.9445C13.2044 28.5286 12.2423 27.9853 11.4758 27.3283L10.1742 28.8468C11.1577 29.6897 12.3455 30.3464 13.7172 30.8305L14.3828 28.9445ZM11.488 27.3389C10.7164 26.6555 10.1424 25.8722 9.75313 24.9855L7.92184 25.7895C8.43256 26.9528 9.18357 27.9695 10.1619 28.8361L11.488 27.3389ZM9.75313 24.9855C9.36029 24.0907 9.16248 23.1405 9.16248 22.125H7.16248C7.16248 23.4095 7.41467 24.6343 7.92184 25.7895L9.75313 24.9855ZM9.16248 22.125C9.16248 21.0184 9.35395 19.9483 9.73798 18.9092L7.86199 18.2159C7.39601 19.4767 7.16248 20.7816 7.16248 22.125H9.16248ZM9.74448 18.891C10.0857 17.9099 10.6754 17.0211 11.5408 16.2223L10.1842 14.7527C9.09952 15.754 8.31424 16.9151 7.85548 18.234L9.74448 18.891ZM11.5502 16.2135C12.3697 15.4372 13.4938 14.7895 14.9662 14.2987L14.3338 12.4013C12.6562 12.9605 11.2553 13.7379 10.1747 14.7616L11.5502 16.2135ZM14.9797 14.2941C16.417 13.7922 18.2353 13.525 20.4625 13.525V11.525C18.0896 11.525 16.033 11.8078 14.3203 12.4059L14.9797 14.2941ZM20.4625 13.525C22.5323 13.525 24.603 13.6954 26.675 14.0367L27 12.0633C24.822 11.7046 22.6427 11.525 20.4625 11.525V13.525ZM26.688 14.0388C28.8101 14.3596 30.8943 14.7666 32.9407 15.2597L33.4092 13.3153C31.3057 12.8085 29.1649 12.3905 26.9869 12.0612L26.688 14.0388ZM32.9544 15.2629C35.0355 15.7336 37.0533 16.2536 39.0079 16.8227L39.567 14.9024C37.5717 14.3215 35.5145 13.7914 33.3956 13.3122L32.9544 15.2629ZM39.0223 16.8267C41.03 17.3788 42.9511 17.8811 44.7856 18.3334L45.2644 16.3916C43.4488 15.9439 41.5449 15.4462 39.5526 14.8983L39.0223 16.8267ZM45.9033 17.8406C46.9174 15.9774 48.1626 14.5207 49.6294 13.4435L48.4456 11.8315C46.7124 13.1043 45.2825 14.7976 44.1467 16.8844L45.9033 17.8406ZM49.6375 13.4375C51.0767 12.3581 52.6062 11.8375 54.25 11.8375V9.83752C52.1437 9.83752 50.1983 10.5169 48.4375 11.8375L49.6375 13.4375ZM54.25 11.8375C54.9348 11.8375 55.5066 11.9549 55.9847 12.1653L56.7902 10.3347C56.0184 9.9951 55.1651 9.83752 54.25 9.83752V11.8375ZM56.0161 12.1785C56.5304 12.3842 56.937 12.6512 57.2554 12.9696L58.6696 11.5554C58.138 11.0238 57.4945 10.6158 56.7589 10.3215L56.0161 12.1785ZM57.2554 12.9696C57.5723 13.2865 57.8044 13.6566 57.9555 14.091L59.8445 13.434C59.5956 12.7184 59.2027 12.0885 58.6696 11.5554L57.2554 12.9696ZM57.9744 14.1411C58.1478 14.5648 58.2375 15.023 58.2375 15.525H60.2375C60.2375 14.777 60.1022 14.0602 59.8255 13.3839L57.9744 14.1411ZM58.2375 15.525C58.2375 16.4101 58.029 17.1285 57.6472 17.7204L59.3278 18.8046C59.9459 17.8465 60.2375 16.74 60.2375 15.525H58.2375ZM57.6427 17.7275C57.2584 18.3341 56.7118 18.8688 55.9745 19.3242L57.0255 21.0258C57.9882 20.4312 58.7665 19.6909 59.3323 18.7976L57.6427 17.7275ZM55.993 19.3131C55.2501 19.75 54.3533 20.0912 53.2876 20.3228L53.7124 22.2772C54.9466 22.0089 56.0498 21.6 57.007 21.037L55.993 19.3131ZM53.308 20.3186C52.2288 20.5298 51.0562 20.6375 49.7875 20.6375V22.6375C51.1687 22.6375 52.4712 22.5203 53.692 22.2814L53.308 20.3186ZM49.7875 20.6375C49.7869 20.6375 49.7863 20.6375 49.7857 20.6375C49.7851 20.6375 49.7846 20.6375 49.784 20.6375C49.7834 20.6375 49.7828 20.6375 49.7822 20.6375C49.7816 20.6375 49.781 20.6375 49.7804 20.6375C49.7799 20.6375 49.7793 20.6375 49.7787 20.6375C49.7781 20.6375 49.7775 20.6375 49.7769 20.6375C49.7763 20.6375 49.7758 20.6375 49.7752 20.6375C49.7746 20.6375 49.774 20.6375 49.7734 20.6375C49.7728 20.6375 49.7722 20.6375 49.7717 20.6375C49.7711 20.6375 49.7705 20.6375 49.7699 20.6375C49.7693 20.6375 49.7687 20.6375 49.7681 20.6375C49.7675 20.6375 49.767 20.6375 49.7664 20.6375C49.7658 20.6375 49.7652 20.6375 49.7646 20.6375C49.764 20.6375 49.7634 20.6375 49.7628 20.6375C49.7623 20.6375 49.7617 20.6375 49.7611 20.6375C49.7605 20.6375 49.7599 20.6375 49.7593 20.6375C49.7587 20.6375 49.7581 20.6375 49.7576 20.6375C49.757 20.6375 49.7564 20.6375 49.7558 20.6375C49.7552 20.6375 49.7546 20.6375 49.754 20.6375C49.7534 20.6375 49.7529 20.6375 49.7523 20.6375C49.7517 20.6375 49.7511 20.6375 49.7505 20.6375C49.7499 20.6375 49.7493 20.6375 49.7487 20.6375C49.7482 20.6375 49.7476 20.6375 49.747 20.6375C49.7464 20.6375 49.7458 20.6375 49.7452 20.6375C49.7446 20.6375 49.744 20.6375 49.7435 20.6375C49.7429 20.6375 49.7423 20.6375 49.7417 20.6375C49.7411 20.6375 49.7405 20.6375 49.7399 20.6375C49.7393 20.6375 49.7387 20.6375 49.7382 20.6375C49.7376 20.6375 49.737 20.6375 49.7364 20.6375C49.7358 20.6375 49.7352 20.6375 49.7346 20.6375C49.734 20.6375 49.7334 20.6375 49.7329 20.6375C49.7323 20.6375 49.7317 20.6375 49.7311 20.6375C49.7305 20.6375 49.7299 20.6375 49.7293 20.6375C49.7287 20.6375 49.7281 20.6375 49.7276 20.6375C49.727 20.6375 49.7264 20.6375 49.7258 20.6375C49.7252 20.6375 49.7246 20.6375 49.724 20.6375C49.7234 20.6375 49.7228 20.6375 49.7222 20.6375C49.7217 20.6375 49.7211 20.6375 49.7205 20.6375C49.7199 20.6375 49.7193 20.6375 49.7187 20.6375C49.7181 20.6375 49.7175 20.6375 49.7169 20.6375C49.7164 20.6375 49.7158 20.6375 49.7152 20.6375C49.7146 20.6375 49.714 20.6375 49.7134 20.6375C49.7128 20.6375 49.7122 20.6375 49.7116 20.6375C49.711 20.6375 49.7105 20.6375 49.7099 20.6375C49.7093 20.6375 49.7087 20.6375 49.7081 20.6375C49.7075 20.6375 49.7069 20.6375 49.7063 20.6375C49.7057 20.6375 49.7051 20.6375 49.7046 20.6375C49.704 20.6375 49.7034 20.6375 49.7028 20.6375C49.7022 20.6375 49.7016 20.6375 49.701 20.6375C49.7004 20.6375 49.6998 20.6375 49.6992 20.6375C49.6986 20.6375 49.6981 20.6375 49.6975 20.6375C49.6969 20.6375 49.6963 20.6375 49.6957 20.6375C49.6951 20.6375 49.6945 20.6375 49.6939 20.6375C49.6933 20.6375 49.6927 20.6375 49.6921 20.6375C49.6916 20.6375 49.691 20.6375 49.6904 20.6375C49.6898 20.6375 49.6892 20.6375 49.6886 20.6375C49.688 20.6375 49.6874 20.6375 49.6868 20.6375C49.6862 20.6375 49.6856 20.6375 49.685 20.6375C49.6845 20.6375 49.6839 20.6375 49.6833 20.6375C49.6827 20.6375 49.6821 20.6375 49.6815 20.6375C49.6809 20.6375 49.6803 20.6375 49.6797 20.6375C49.6791 20.6375 49.6785 20.6375 49.6779 20.6375C49.6774 20.6375 49.6768 20.6375 49.6762 20.6375C49.6756 20.6375 49.675 20.6375 49.6744 20.6375C49.6738 20.6375 49.6732 20.6375 49.6726 20.6375C49.672 20.6375 49.6714 20.6375 49.6708 20.6375C49.6703 20.6375 49.6697 20.6375 49.6691 20.6375C49.6685 20.6375 49.6679 20.6375 49.6673 20.6375C49.6667 20.6375 49.6661 20.6375 49.6655 20.6375C49.6649 20.6375 49.6643 20.6375 49.6637 20.6375C49.6631 20.6375 49.6626 20.6375 49.662 20.6375C49.6614 20.6375 49.6608 20.6375 49.6602 20.6375C49.6596 20.6375 49.659 20.6375 49.6584 20.6375C49.6578 20.6375 49.6572 20.6375 49.6566 20.6375C49.656 20.6375 49.6554 20.6375 49.6548 20.6375C49.6543 20.6375 49.6537 20.6375 49.6531 20.6375C49.6525 20.6375 49.6519 20.6375 49.6513 20.6375C49.6507 20.6375 49.6501 20.6375 49.6495 20.6375C49.6489 20.6375 49.6483 20.6375 49.6477 20.6375C49.6471 20.6375 49.6465 20.6375 49.6459 20.6375C49.6453 20.6375 49.6448 20.6375 49.6442 20.6375C49.6436 20.6375 49.643 20.6375 49.6424 20.6375C49.6418 20.6375 49.6412 20.6375 49.6406 20.6375C49.64 20.6375 49.6394 20.6375 49.6388 20.6375C49.6382 20.6375 49.6376 20.6375 49.637 20.6375C49.6364 20.6375 49.6358 20.6375 49.6353 20.6375C49.6347 20.6375 49.6341 20.6375 49.6335 20.6375C49.6329 20.6375 49.6323 20.6375 49.6317 20.6375C49.6311 20.6375 49.6305 20.6375 49.6299 20.6375C49.6293 20.6375 49.6287 20.6375 49.6281 20.6375C49.6275 20.6375 49.6269 20.6375 49.6263 20.6375C49.6257 20.6375 49.6251 20.6375 49.6246 20.6375C49.624 20.6375 49.6234 20.6375 49.6228 20.6375C49.6222 20.6375 49.6216 20.6375 49.621 20.6375C49.6204 20.6375 49.6198 20.6375 49.6192 20.6375C49.6186 20.6375 49.618 20.6375 49.6174 20.6375C49.6168 20.6375 49.6162 20.6375 49.6156 20.6375C49.615 20.6375 49.6144 20.6375 49.6138 20.6375C49.6132 20.6375 49.6127 20.6375 49.6121 20.6375C49.6115 20.6375 49.6109 20.6375 49.6103 20.6375C49.6097 20.6375 49.6091 20.6375 49.6085 20.6375C49.6079 20.6375 49.6073 20.6375 49.6067 20.6375C49.6061 20.6375 49.6055 20.6375 49.6049 20.6375C49.6043 20.6375 49.6037 20.6375 49.6031 20.6375C49.6025 20.6375 49.6019 20.6375 49.6013 20.6375C49.6007 20.6375 49.6001 20.6375 49.5995 20.6375C49.599 20.6375 49.5984 20.6375 49.5978 20.6375C49.5972 20.6375 49.5966 20.6375 49.596 20.6375C49.5954 20.6375 49.5948 20.6375 49.5942 20.6375C49.5936 20.6375 49.593 20.6375 49.5924 20.6375C49.5918 20.6375 49.5912 20.6375 49.5906 20.6375C49.59 20.6375 49.5894 20.6375 49.5888 20.6375C49.5882 20.6375 49.5876 20.6375 49.587 20.6375C49.5864 20.6375 49.5858 20.6375 49.5852 20.6375C49.5846 20.6375 49.584 20.6375 49.5834 20.6375C49.5828 20.6375 49.5822 20.6375 49.5817 20.6375C49.5811 20.6375 49.5805 20.6375 49.5799 20.6375C49.5793 20.6375 49.5787 20.6375 49.5781 20.6375C49.5775 20.6375 49.5769 20.6375 49.5763 20.6375C49.5757 20.6375 49.5751 20.6375 49.5745 20.6375C49.5739 20.6375 49.5733 20.6375 49.5727 20.6375C49.5721 20.6375 49.5715 20.6375 49.5709 20.6375C49.5703 20.6375 49.5697 20.6375 49.5691 20.6375C49.5685 20.6375 49.5679 20.6375 49.5673 20.6375C49.5667 20.6375 49.5661 20.6375 49.5655 20.6375C49.5649 20.6375 49.5643 20.6375 49.5637 20.6375C49.5631 20.6375 49.5625 20.6375 49.5619 20.6375C49.5613 20.6375 49.5607 20.6375 49.5601 20.6375C49.5595 20.6375 49.5589 20.6375 49.5583 20.6375C49.5577 20.6375 49.5571 20.6375 49.5565 20.6375C49.556 20.6375 49.5554 20.6375 49.5548 20.6375C49.5542 20.6375 49.5536 20.6375 49.553 20.6375C49.5524 20.6375 49.5518 20.6375 49.5512 20.6375C49.5506 20.6375 49.55 20.6375 49.5494 20.6375C49.5488 20.6375 49.5482 20.6375 49.5476 20.6375C49.547 20.6375 49.5464 20.6375 49.5458 20.6375C49.5452 20.6375 49.5446 20.6375 49.544 20.6375C49.5434 20.6375 49.5428 20.6375 49.5422 20.6375C49.5416 20.6375 49.541 20.6375 49.5404 20.6375C49.5398 20.6375 49.5392 20.6375 49.5386 20.6375C49.538 20.6375 49.5374 20.6375 49.5368 20.6375C49.5362 20.6375 49.5356 20.6375 49.535 20.6375C49.5344 20.6375 49.5338 20.6375 49.5332 20.6375C49.5326 20.6375 49.532 20.6375 49.5314 20.6375C49.5308 20.6375 49.5302 20.6375 49.5296 20.6375C49.529 20.6375 49.5284 20.6375 49.5278 20.6375C49.5272 20.6375 49.5266 20.6375 49.526 20.6375C49.5254 20.6375 49.5248 20.6375 49.5242 20.6375C49.5236 20.6375 49.523 20.6375 49.5224 20.6375C49.5218 20.6375 49.5212 20.6375 49.5206 20.6375C49.52 20.6375 49.5194 20.6375 49.5188 20.6375C49.5182 20.6375 49.5176 20.6375 49.517 20.6375C49.5164 20.6375 49.5158 20.6375 49.5152 20.6375C49.5146 20.6375 49.514 20.6375 49.5134 20.6375C49.5128 20.6375 49.5122 20.6375 49.5116 20.6375C49.511 20.6375 49.5104 20.6375 49.5098 20.6375C49.5092 20.6375 49.5086 20.6375 49.508 20.6375C49.5074 20.6375 49.5068 20.6375 49.5062 20.6375C49.5056 20.6375 49.505 20.6375 49.5044 20.6375C49.5038 20.6375 49.5032 20.6375 49.5026 20.6375C49.502 20.6375 49.5014 20.6375 49.5008 20.6375C49.5002 20.6375 49.4996 20.6375 49.499 20.6375C49.4984 20.6375 49.4978 20.6375 49.4972 20.6375C49.4966 20.6375 49.496 20.6375 49.4954 20.6375C49.4948 20.6375 49.4942 20.6375 49.4935 20.6375C49.4929 20.6375 49.4923 20.6375 49.4917 20.6375C49.4911 20.6375 49.4905 20.6375 49.4899 20.6375C49.4893 20.6375 49.4887 20.6375 49.4881 20.6375C49.4875 20.6375 49.4869 20.6375 49.4863 20.6375C49.4857 20.6375 49.4851 20.6375 49.4845 20.6375C49.4839 20.6375 49.4833 20.6375 49.4827 20.6375C49.4821 20.6375 49.4815 20.6375 49.4809 20.6375C49.4803 20.6375 49.4797 20.6375 49.4791 20.6375C49.4785 20.6375 49.4779 20.6375 49.4773 20.6375C49.4767 20.6375 49.4761 20.6375 49.4755 20.6375C49.4749 20.6375 49.4743 20.6375 49.4737 20.6375C49.4731 20.6375 49.4725 20.6375 49.4719 20.6375C49.4713 20.6375 49.4707 20.6375 49.4701 20.6375C49.4695 20.6375 49.4689 20.6375 49.4683 20.6375C49.4676 20.6375 49.467 20.6375 49.4664 20.6375C49.4658 20.6375 49.4652 20.6375 49.4646 20.6375C49.464 20.6375 49.4634 20.6375 49.4628 20.6375C49.4622 20.6375 49.4616 20.6375 49.461 20.6375C49.4604 20.6375 49.4598 20.6375 49.4592 20.6375C49.4586 20.6375 49.458 20.6375 49.4574 20.6375C49.4568 20.6375 49.4562 20.6375 49.4556 20.6375C49.455 20.6375 49.4544 20.6375 49.4538 20.6375C49.4532 20.6375 49.4526 20.6375 49.452 20.6375C49.4514 20.6375 49.4508 20.6375 49.4501 20.6375C49.4495 20.6375 49.4489 20.6375 49.4483 20.6375C49.4477 20.6375 49.4471 20.6375 49.4465 20.6375C49.4459 20.6375 49.4453 20.6375 49.4447 20.6375C49.4441 20.6375 49.4435 20.6375 49.4429 20.6375C49.4423 20.6375 49.4417 20.6375 49.4411 20.6375C49.4405 20.6375 49.4399 20.6375 49.4393 20.6375C49.4387 20.6375 49.4381 20.6375 49.4375 20.6375C49.4369 20.6375 49.4362 20.6375 49.4356 20.6375C49.435 20.6375 49.4344 20.6375 49.4338 20.6375C49.4332 20.6375 49.4326 20.6375 49.432 20.6375C49.4314 20.6375 49.4308 20.6375 49.4302 20.6375C49.4296 20.6375 49.429 20.6375 49.4284 20.6375C49.4278 20.6375 49.4272 20.6375 49.4266 20.6375C49.426 20.6375 49.4254 20.6375 49.4248 20.6375C49.4241 20.6375 49.4235 20.6375 49.4229 20.6375C49.4223 20.6375 49.4217 20.6375 49.4211 20.6375C49.4205 20.6375 49.4199 20.6375 49.4193 20.6375C49.4187 20.6375 49.4181 20.6375 49.4175 20.6375C49.4169 20.6375 49.4163 20.6375 49.4157 20.6375C49.4151 20.6375 49.4145 20.6375 49.4139 20.6375C49.4132 20.6375 49.4126 20.6375 49.412 20.6375C49.4114 20.6375 49.4108 20.6375 49.4102 20.6375C49.4096 20.6375 49.409 20.6375 49.4084 20.6375C49.4078 20.6375 49.4072 20.6375 49.4066 20.6375C49.406 20.6375 49.4054 20.6375 49.4048 20.6375C49.4042 20.6375 49.4035 20.6375 49.4029 20.6375C49.4023 20.6375 49.4017 20.6375 49.4011 20.6375C49.4005 20.6375 49.3999 20.6375 49.3993 20.6375C49.3987 20.6375 49.3981 20.6375 49.3975 20.6375C49.3969 20.6375 49.3963 20.6375 49.3957 20.6375C49.3951 20.6375 49.3944 20.6375 49.3938 20.6375C49.3932 20.6375 49.3926 20.6375 49.392 20.6375C49.3914 20.6375 49.3908 20.6375 49.3902 20.6375C49.3896 20.6375 49.389 20.6375 49.3884 20.6375C49.3878 20.6375 49.3872 20.6375 49.3866 20.6375C49.3859 20.6375 49.3853 20.6375 49.3847 20.6375C49.3841 20.6375 49.3835 20.6375 49.3829 20.6375C49.3823 20.6375 49.3817 20.6375 49.3811 20.6375C49.3805 20.6375 49.3799 20.6375 49.3793 20.6375C49.3787 20.6375 49.3781 20.6375 49.3774 20.6375C49.3768 20.6375 49.3762 20.6375 49.3756 20.6375C49.375 20.6375 49.3744 20.6375 49.3738 20.6375C49.3732 20.6375 49.3726 20.6375 49.372 20.6375C49.3714 20.6375 49.3708 20.6375 49.3701 20.6375C49.3695 20.6375 49.3689 20.6375 49.3683 20.6375C49.3677 20.6375 49.3671 20.6375 49.3665 20.6375C49.3659 20.6375 49.3653 20.6375 49.3647 20.6375C49.3641 20.6375 49.3635 20.6375 49.3628 20.6375C49.3622 20.6375 49.3616 20.6375 49.361 20.6375C49.3604 20.6375 49.3598 20.6375 49.3592 20.6375C49.3586 20.6375 49.358 20.6375 49.3574 20.6375C49.3568 20.6375 49.3562 20.6375 49.3555 20.6375C49.3549 20.6375 49.3543 20.6375 49.3537 20.6375C49.3531 20.6375 49.3525 20.6375 49.3519 20.6375C49.3513 20.6375 49.3507 20.6375 49.3501 20.6375C49.3494 20.6375 49.3488 20.6375 49.3482 20.6375C49.3476 20.6375 49.347 20.6375 49.3464 20.6375C49.3458 20.6375 49.3452 20.6375 49.3446 20.6375C49.344 20.6375 49.3434 20.6375 49.3427 20.6375C49.3421 20.6375 49.3415 20.6375 49.3409 20.6375C49.3403 20.6375 49.3397 20.6375 49.3391 20.6375C49.3385 20.6375 49.3379 20.6375 49.3373 20.6375C49.3367 20.6375 49.336 20.6375 49.3354 20.6375C49.3348 20.6375 49.3342 20.6375 49.3336 20.6375C49.333 20.6375 49.3324 20.6375 49.3318 20.6375C49.3312 20.6375 49.3306 20.6375 49.3299 20.6375C49.3293 20.6375 49.3287 20.6375 49.3281 20.6375C49.3275 20.6375 49.3269 20.6375 49.3263 20.6375C49.3257 20.6375 49.3251 20.6375 49.3244 20.6375C49.3238 20.6375 49.3232 20.6375 49.3226 20.6375C49.322 20.6375 49.3214 20.6375 49.3208 20.6375C49.3202 20.6375 49.3196 20.6375 49.319 20.6375C49.3183 20.6375 49.3177 20.6375 49.3171 20.6375C49.3165 20.6375 49.3159 20.6375 49.3153 20.6375C49.3147 20.6375 49.3141 20.6375 49.3134 20.6375C49.3128 20.6375 49.3122 20.6375 49.3116 20.6375C49.311 20.6375 49.3104 20.6375 49.3098 20.6375C49.3092 20.6375 49.3086 20.6375 49.3079 20.6375C49.3073 20.6375 49.3067 20.6375 49.3061 20.6375C49.3055 20.6375 49.3049 20.6375 49.3043 20.6375C49.3037 20.6375 49.3031 20.6375 49.3024 20.6375C49.3018 20.6375 49.3012 20.6375 49.3006 20.6375C49.3 20.6375 49.2994 20.6375 49.2988 20.6375C49.2982 20.6375 49.2976 20.6375 49.2969 20.6375C49.2963 20.6375 49.2957 20.6375 49.2951 20.6375C49.2945 20.6375 49.2939 20.6375 49.2933 20.6375C49.2927 20.6375 49.292 20.6375 49.2914 20.6375C49.2908 20.6375 49.2902 20.6375 49.2896 20.6375C49.289 20.6375 49.2884 20.6375 49.2878 20.6375C49.2871 20.6375 49.2865 20.6375 49.2859 20.6375C49.2853 20.6375 49.2847 20.6375 49.2841 20.6375C49.2835 20.6375 49.2829 20.6375 49.2822 20.6375C49.2816 20.6375 49.281 20.6375 49.2804 20.6375C49.2798 20.6375 49.2792 20.6375 49.2786 20.6375C49.278 20.6375 49.2773 20.6375 49.2767 20.6375C49.2761 20.6375 49.2755 20.6375 49.2749 20.6375C49.2743 20.6375 49.2737 20.6375 49.273 20.6375C49.2724 20.6375 49.2718 20.6375 49.2712 20.6375C49.2706 20.6375 49.27 20.6375 49.2694 20.6375C49.2688 20.6375 49.2681 20.6375 49.2675 20.6375C49.2669 20.6375 49.2663 20.6375 49.2657 20.6375C49.2651 20.6375 49.2645 20.6375 49.2638 20.6375C49.2632 20.6375 49.2626 20.6375 49.262 20.6375C49.2614 20.6375 49.2608 20.6375 49.2602 20.6375C49.2595 20.6375 49.2589 20.6375 49.2583 20.6375C49.2577 20.6375 49.2571 20.6375 49.2565 20.6375C49.2559 20.6375 49.2553 20.6375 49.2546 20.6375C49.254 20.6375 49.2534 20.6375 49.2528 20.6375C49.2522 20.6375 49.2516 20.6375 49.2509 20.6375C49.2503 20.6375 49.2497 20.6375 49.2491 20.6375C49.2485 20.6375 49.2479 20.6375 49.2473 20.6375C49.2467 20.6375 49.246 20.6375 49.2454 20.6375C49.2448 20.6375 49.2442 20.6375 49.2436 20.6375C49.243 20.6375 49.2423 20.6375 49.2417 20.6375C49.2411 20.6375 49.2405 20.6375 49.2399 20.6375C49.2393 20.6375 49.2387 20.6375 49.238 20.6375C49.2374 20.6375 49.2368 20.6375 49.2362 20.6375C49.2356 20.6375 49.235 20.6375 49.2344 20.6375C49.2337 20.6375 49.2331 20.6375 49.2325 20.6375C49.2319 20.6375 49.2313 20.6375 49.2307 20.6375C49.23 20.6375 49.2294 20.6375 49.2288 20.6375C49.2282 20.6375 49.2276 20.6375 49.227 20.6375C49.2264 20.6375 49.2257 20.6375 49.2251 20.6375C49.2245 20.6375 49.2239 20.6375 49.2233 20.6375C49.2227 20.6375 49.222 20.6375 49.2214 20.6375C49.2208 20.6375 49.2202 20.6375 49.2196 20.6375C49.219 20.6375 49.2183 20.6375 49.2177 20.6375C49.2171 20.6375 49.2165 20.6375 49.2159 20.6375C49.2153 20.6375 49.2146 20.6375 49.214 20.6375C49.2134 20.6375 49.2128 20.6375 49.2122 20.6375C49.2116 20.6375 49.211 20.6375 49.2103 20.6375C49.2097 20.6375 49.2091 20.6375 49.2085 20.6375C49.2079 20.6375 49.2073 20.6375 49.2066 20.6375C49.206 20.6375 49.2054 20.6375 49.2048 20.6375C49.2042 20.6375 49.2036 20.6375 49.2029 20.6375C49.2023 20.6375 49.2017 20.6375 49.2011 20.6375C49.2005 20.6375 49.1999 20.6375 49.1992 20.6375C49.1986 20.6375 49.198 20.6375 49.1974 20.6375C49.1968 20.6375 49.1961 20.6375 49.1955 20.6375C49.1949 20.6375 49.1943 20.6375 49.1937 20.6375C49.1931 20.6375 49.1924 20.6375 49.1918 20.6375C49.1912 20.6375 49.1906 20.6375 49.19 20.6375C49.1894 20.6375 49.1887 20.6375 49.1881 20.6375C49.1875 20.6375 49.1869 20.6375 49.1863 20.6375C49.1856 20.6375 49.185 20.6375 49.1844 20.6375C49.1838 20.6375 49.1832 20.6375 49.1826 20.6375C49.1819 20.6375 49.1813 20.6375 49.1807 20.6375C49.1801 20.6375 49.1795 20.6375 49.1789 20.6375C49.1782 20.6375 49.1776 20.6375 49.177 20.6375C49.1764 20.6375 49.1758 20.6375 49.1751 20.6375C49.1745 20.6375 49.1739 20.6375 49.1733 20.6375C49.1727 20.6375 49.1721 20.6375 49.1714 20.6375C49.1708 20.6375 49.1702 20.6375 49.1696 20.6375C49.169 20.6375 49.1683 20.6375 49.1677 20.6375C49.1671 20.6375 49.1665 20.6375 49.1659 20.6375C49.1652 20.6375 49.1646 20.6375 49.164 20.6375C49.1634 20.6375 49.1628 20.6375 49.1622 20.6375C49.1615 20.6375 49.1609 20.6375 49.1603 20.6375C49.1597 20.6375 49.1591 20.6375 49.1584 20.6375C49.1578 20.6375 49.1572 20.6375 49.1566 20.6375C49.156 20.6375 49.1553 20.6375 49.1547 20.6375C49.1541 20.6375 49.1535 20.6375 49.1529 20.6375C49.1522 20.6375 49.1516 20.6375 49.151 20.6375C49.1504 20.6375 49.1498 20.6375 49.1492 20.6375C49.1485 20.6375 49.1479 20.6375 49.1473 20.6375C49.1467 20.6375 49.1461 20.6375 49.1454 20.6375C49.1448 20.6375 49.1442 20.6375 49.1436 20.6375C49.143 20.6375 49.1423 20.6375 49.1417 20.6375C49.1411 20.6375 49.1405 20.6375 49.1399 20.6375C49.1392 20.6375 49.1386 20.6375 49.138 20.6375C49.1374 20.6375 49.1368 20.6375 49.1361 20.6375C49.1355 20.6375 49.1349 20.6375 49.1343 20.6375C49.1337 20.6375 49.133 20.6375 49.1324 20.6375C49.1318 20.6375 49.1312 20.6375 49.1305 20.6375C49.1299 20.6375 49.1293 20.6375 49.1287 20.6375C49.1281 20.6375 49.1274 20.6375 49.1268 20.6375C49.1262 20.6375 49.1256 20.6375 49.125 20.6375C49.1243 20.6375 49.1237 20.6375 49.1231 20.6375C49.1225 20.6375 49.1219 20.6375 49.1212 20.6375C49.1206 20.6375 49.12 20.6375 49.1194 20.6375C49.1188 20.6375 49.1181 20.6375 49.1175 20.6375C49.1169 20.6375 49.1163 20.6375 49.1156 20.6375C49.115 20.6375 49.1144 20.6375 49.1138 20.6375C49.1132 20.6375 49.1125 20.6375 49.1119 20.6375C49.1113 20.6375 49.1107 20.6375 49.1101 20.6375C49.1094 20.6375 49.1088 20.6375 49.1082 20.6375C49.1076 20.6375 49.1069 20.6375 49.1063 20.6375C49.1057 20.6375 49.1051 20.6375 49.1045 20.6375C49.1038 20.6375 49.1032 20.6375 49.1026 20.6375C49.102 20.6375 49.1013 20.6375 49.1007 20.6375C49.1001 20.6375 49.0995 20.6375 49.0989 20.6375C49.0982 20.6375 49.0976 20.6375 49.097 20.6375C49.0964 20.6375 49.0957 20.6375 49.0951 20.6375C49.0945 20.6375 49.0939 20.6375 49.0933 20.6375C49.0926 20.6375 49.092 20.6375 49.0914 20.6375C49.0908 20.6375 49.0901 20.6375 49.0895 20.6375C49.0889 20.6375 49.0883 20.6375 49.0877 20.6375C49.087 20.6375 49.0864 20.6375 49.0858 20.6375C49.0852 20.6375 49.0845 20.6375 49.0839 20.6375C49.0833 20.6375 49.0827 20.6375 49.082 20.6375C49.0814 20.6375 49.0808 20.6375 49.0802 20.6375C49.0796 20.6375 49.0789 20.6375 49.0783 20.6375C49.0777 20.6375 49.0771 20.6375 49.0764 20.6375C49.0758 20.6375 49.0752 20.6375 49.0746 20.6375C49.0739 20.6375 49.0733 20.6375 49.0727 20.6375C49.0721 20.6375 49.0715 20.6375 49.0708 20.6375C49.0702 20.6375 49.0696 20.6375 49.069 20.6375C49.0683 20.6375 49.0677 20.6375 49.0671 20.6375C49.0665 20.6375 49.0658 20.6375 49.0652 20.6375C49.0646 20.6375 49.064 20.6375 49.0633 20.6375C49.0627 20.6375 49.0621 20.6375 49.0615 20.6375C49.0608 20.6375 49.0602 20.6375 49.0596 20.6375C49.059 20.6375 49.0583 20.6375 49.0577 20.6375C49.0571 20.6375 49.0565 20.6375 49.0559 20.6375C49.0552 20.6375 49.0546 20.6375 49.054 20.6375C49.0534 20.6375 49.0527 20.6375 49.0521 20.6375C49.0515 20.6375 49.0509 20.6375 49.0502 20.6375C49.0496 20.6375 49.049 20.6375 49.0484 20.6375C49.0477 20.6375 49.0471 20.6375 49.0465 20.6375C49.0459 20.6375 49.0452 20.6375 49.0446 20.6375C49.044 20.6375 49.0434 20.6375 49.0427 20.6375C49.0421 20.6375 49.0415 20.6375 49.0409 20.6375C49.0402 20.6375 49.0396 20.6375 49.039 20.6375C49.0384 20.6375 49.0377 20.6375 49.0371 20.6375C49.0365 20.6375 49.0359 20.6375 49.0352 20.6375C49.0346 20.6375 49.034 20.6375 49.0334 20.6375C49.0327 20.6375 49.0321 20.6375 49.0315 20.6375C49.0309 20.6375 49.0302 20.6375 49.0296 20.6375C49.029 20.6375 49.0283 20.6375 49.0277 20.6375C49.0271 20.6375 49.0265 20.6375 49.0258 20.6375C49.0252 20.6375 49.0246 20.6375 49.024 20.6375C49.0233 20.6375 49.0227 20.6375 49.0221 20.6375C49.0215 20.6375 49.0208 20.6375 49.0202 20.6375C49.0196 20.6375 49.019 20.6375 49.0183 20.6375C49.0177 20.6375 49.0171 20.6375 49.0165 20.6375C49.0158 20.6375 49.0152 20.6375 49.0146 20.6375C49.0139 20.6375 49.0133 20.6375 49.0127 20.6375C49.0121 20.6375 49.0114 20.6375 49.0108 20.6375C49.0102 20.6375 49.0096 20.6375 49.0089 20.6375C49.0083 20.6375 49.0077 20.6375 49.0071 20.6375C49.0064 20.6375 49.0058 20.6375 49.0052 20.6375C49.0045 20.6375 49.0039 20.6375 49.0033 20.6375C49.0027 20.6375 49.002 20.6375 49.0014 20.6375C49.0008 20.6375 49.0002 20.6375 48.9995 20.6375C48.9989 20.6375 48.9983 20.6375 48.9976 20.6375C48.997 20.6375 48.9964 20.6375 48.9958 20.6375C48.9951 20.6375 48.9945 20.6375 48.9939 20.6375C48.9933 20.6375 48.9926 20.6375 48.992 20.6375C48.9914 20.6375 48.9907 20.6375 48.9901 20.6375C48.9895 20.6375 48.9889 20.6375 48.9882 20.6375C48.9876 20.6375 48.987 20.6375 48.9864 20.6375C48.9857 20.6375 48.9851 20.6375 48.9845 20.6375C48.9838 20.6375 48.9832 20.6375 48.9826 20.6375C48.982 20.6375 48.9813 20.6375 48.9807 20.6375C48.9801 20.6375 48.9794 20.6375 48.9788 20.6375C48.9782 20.6375 48.9776 20.6375 48.9769 20.6375C48.9763 20.6375 48.9757 20.6375 48.975 20.6375C48.9744 20.6375 48.9738 20.6375 48.9732 20.6375C48.9725 20.6375 48.9719 20.6375 48.9713 20.6375C48.9706 20.6375 48.97 20.6375 48.9694 20.6375C48.9688 20.6375 48.9681 20.6375 48.9675 20.6375C48.9669 20.6375 48.9662 20.6375 48.9656 20.6375C48.965 20.6375 48.9644 20.6375 48.9637 20.6375C48.9631 20.6375 48.9625 20.6375 48.9618 20.6375C48.9612 20.6375 48.9606 20.6375 48.9599 20.6375C48.9593 20.6375 48.9587 20.6375 48.9581 20.6375C48.9574 20.6375 48.9568 20.6375 48.9562 20.6375C48.9555 20.6375 48.9549 20.6375 48.9543 20.6375C48.9537 20.6375 48.953 20.6375 48.9524 20.6375C48.9518 20.6375 48.9511 20.6375 48.9505 20.6375C48.9499 20.6375 48.9492 20.6375 48.9486 20.6375C48.948 20.6375 48.9474 20.6375 48.9467 20.6375C48.9461 20.6375 48.9455 20.6375 48.9448 20.6375C48.9442 20.6375 48.9436 20.6375 48.943 20.6375C48.9423 20.6375 48.9417 20.6375 48.9411 20.6375C48.9404 20.6375 48.9398 20.6375 48.9392 20.6375C48.9385 20.6375 48.9379 20.6375 48.9373 20.6375C48.9366 20.6375 48.936 20.6375 48.9354 20.6375C48.9348 20.6375 48.9341 20.6375 48.9335 20.6375C48.9329 20.6375 48.9322 20.6375 48.9316 20.6375C48.931 20.6375 48.9303 20.6375 48.9297 20.6375C48.9291 20.6375 48.9285 20.6375 48.9278 20.6375C48.9272 20.6375 48.9266 20.6375 48.9259 20.6375C48.9253 20.6375 48.9247 20.6375 48.924 20.6375C48.9234 20.6375 48.9228 20.6375 48.9221 20.6375C48.9215 20.6375 48.9209 20.6375 48.9202 20.6375C48.9196 20.6375 48.919 20.6375 48.9184 20.6375C48.9177 20.6375 48.9171 20.6375 48.9165 20.6375C48.9158 20.6375 48.9152 20.6375 48.9146 20.6375C48.9139 20.6375 48.9133 20.6375 48.9127 20.6375C48.912 20.6375 48.9114 20.6375 48.9108 20.6375C48.9101 20.6375 48.9095 20.6375 48.9089 20.6375C48.9082 20.6375 48.9076 20.6375 48.907 20.6375C48.9064 20.6375 48.9057 20.6375 48.9051 20.6375C48.9045 20.6375 48.9038 20.6375 48.9032 20.6375C48.9026 20.6375 48.9019 20.6375 48.9013 20.6375C48.9007 20.6375 48.9 20.6375 48.8994 20.6375C48.8988 20.6375 48.8981 20.6375 48.8975 20.6375C48.8969 20.6375 48.8962 20.6375 48.8956 20.6375C48.895 20.6375 48.8943 20.6375 48.8937 20.6375C48.8931 20.6375 48.8924 20.6375 48.8918 20.6375C48.8912 20.6375 48.8905 20.6375 48.8899 20.6375C48.8893 20.6375 48.8886 20.6375 48.888 20.6375C48.8874 20.6375 48.8867 20.6375 48.8861 20.6375C48.8855 20.6375 48.8848 20.6375 48.8842 20.6375C48.8836 20.6375 48.8829 20.6375 48.8823 20.6375C48.8817 20.6375 48.8811 20.6375 48.8804 20.6375C48.8798 20.6375 48.8792 20.6375 48.8785 20.6375C48.8779 20.6375 48.8772 20.6375 48.8766 20.6375C48.876 20.6375 48.8753 20.6375 48.8747 20.6375C48.8741 20.6375 48.8734 20.6375 48.8728 20.6375C48.8722 20.6375 48.8715 20.6375 48.8709 20.6375C48.8703 20.6375 48.8696 20.6375 48.869 20.6375C48.8684 20.6375 48.8677 20.6375 48.8671 20.6375C48.8665 20.6375 48.8658 20.6375 48.8652 20.6375C48.8646 20.6375 48.8639 20.6375 48.8633 20.6375C48.8627 20.6375 48.862 20.6375 48.8614 20.6375C48.8608 20.6375 48.8601 20.6375 48.8595 20.6375C48.8589 20.6375 48.8582 20.6375 48.8576 20.6375C48.857 20.6375 48.8563 20.6375 48.8557 20.6375C48.8551 20.6375 48.8544 20.6375 48.8538 20.6375C48.8532 20.6375 48.8525 20.6375 48.8519 20.6375C48.8513 20.6375 48.8506 20.6375 48.85 20.6375V22.6375C48.8506 22.6375 48.8513 22.6375 48.8519 22.6375C48.8525 22.6375 48.8532 22.6375 48.8538 22.6375C48.8544 22.6375 48.8551 22.6375 48.8557 22.6375C48.8563 22.6375 48.857 22.6375 48.8576 22.6375C48.8582 22.6375 48.8589 22.6375 48.8595 22.6375C48.8601 22.6375 48.8608 22.6375 48.8614 22.6375C48.862 22.6375 48.8627 22.6375 48.8633 22.6375C48.8639 22.6375 48.8646 22.6375 48.8652 22.6375C48.8658 22.6375 48.8665 22.6375 48.8671 22.6375C48.8677 22.6375 48.8684 22.6375 48.869 22.6375C48.8696 22.6375 48.8703 22.6375 48.8709 22.6375C48.8715 22.6375 48.8722 22.6375 48.8728 22.6375C48.8734 22.6375 48.8741 22.6375 48.8747 22.6375C48.8753 22.6375 48.876 22.6375 48.8766 22.6375C48.8772 22.6375 48.8779 22.6375 48.8785 22.6375C48.8792 22.6375 48.8798 22.6375 48.8804 22.6375C48.8811 22.6375 48.8817 22.6375 48.8823 22.6375C48.8829 22.6375 48.8836 22.6375 48.8842 22.6375C48.8848 22.6375 48.8855 22.6375 48.8861 22.6375C48.8867 22.6375 48.8874 22.6375 48.888 22.6375C48.8886 22.6375 48.8893 22.6375 48.8899 22.6375C48.8905 22.6375 48.8912 22.6375 48.8918 22.6375C48.8924 22.6375 48.8931 22.6375 48.8937 22.6375C48.8943 22.6375 48.895 22.6375 48.8956 22.6375C48.8962 22.6375 48.8969 22.6375 48.8975 22.6375C48.8981 22.6375 48.8988 22.6375 48.8994 22.6375C48.9 22.6375 48.9007 22.6375 48.9013 22.6375C48.9019 22.6375 48.9026 22.6375 48.9032 22.6375C48.9038 22.6375 48.9045 22.6375 48.9051 22.6375C48.9057 22.6375 48.9064 22.6375 48.907 22.6375C48.9076 22.6375 48.9082 22.6375 48.9089 22.6375C48.9095 22.6375 48.9101 22.6375 48.9108 22.6375C48.9114 22.6375 48.912 22.6375 48.9127 22.6375C48.9133 22.6375 48.9139 22.6375 48.9146 22.6375C48.9152 22.6375 48.9158 22.6375 48.9165 22.6375C48.9171 22.6375 48.9177 22.6375 48.9184 22.6375C48.919 22.6375 48.9196 22.6375 48.9202 22.6375C48.9209 22.6375 48.9215 22.6375 48.9221 22.6375C48.9228 22.6375 48.9234 22.6375 48.924 22.6375C48.9247 22.6375 48.9253 22.6375 48.9259 22.6375C48.9266 22.6375 48.9272 22.6375 48.9278 22.6375C48.9285 22.6375 48.9291 22.6375 48.9297 22.6375C48.9303 22.6375 48.931 22.6375 48.9316 22.6375C48.9322 22.6375 48.9329 22.6375 48.9335 22.6375C48.9341 22.6375 48.9348 22.6375 48.9354 22.6375C48.936 22.6375 48.9366 22.6375 48.9373 22.6375C48.9379 22.6375 48.9385 22.6375 48.9392 22.6375C48.9398 22.6375 48.9404 22.6375 48.9411 22.6375C48.9417 22.6375 48.9423 22.6375 48.943 22.6375C48.9436 22.6375 48.9442 22.6375 48.9448 22.6375C48.9455 22.6375 48.9461 22.6375 48.9467 22.6375C48.9474 22.6375 48.948 22.6375 48.9486 22.6375C48.9492 22.6375 48.9499 22.6375 48.9505 22.6375C48.9511 22.6375 48.9518 22.6375 48.9524 22.6375C48.953 22.6375 48.9537 22.6375 48.9543 22.6375C48.9549 22.6375 48.9555 22.6375 48.9562 22.6375C48.9568 22.6375 48.9574 22.6375 48.9581 22.6375C48.9587 22.6375 48.9593 22.6375 48.9599 22.6375C48.9606 22.6375 48.9612 22.6375 48.9618 22.6375C48.9625 22.6375 48.9631 22.6375 48.9637 22.6375C48.9644 22.6375 48.965 22.6375 48.9656 22.6375C48.9662 22.6375 48.9669 22.6375 48.9675 22.6375C48.9681 22.6375 48.9688 22.6375 48.9694 22.6375C48.97 22.6375 48.9706 22.6375 48.9713 22.6375C48.9719 22.6375 48.9725 22.6375 48.9732 22.6375C48.9738 22.6375 48.9744 22.6375 48.975 22.6375C48.9757 22.6375 48.9763 22.6375 48.9769 22.6375C48.9776 22.6375 48.9782 22.6375 48.9788 22.6375C48.9794 22.6375 48.9801 22.6375 48.9807 22.6375C48.9813 22.6375 48.982 22.6375 48.9826 22.6375C48.9832 22.6375 48.9838 22.6375 48.9845 22.6375C48.9851 22.6375 48.9857 22.6375 48.9864 22.6375C48.987 22.6375 48.9876 22.6375 48.9882 22.6375C48.9889 22.6375 48.9895 22.6375 48.9901 22.6375C48.9907 22.6375 48.9914 22.6375 48.992 22.6375C48.9926 22.6375 48.9933 22.6375 48.9939 22.6375C48.9945 22.6375 48.9951 22.6375 48.9958 22.6375C48.9964 22.6375 48.997 22.6375 48.9976 22.6375C48.9983 22.6375 48.9989 22.6375 48.9995 22.6375C49.0002 22.6375 49.0008 22.6375 49.0014 22.6375C49.002 22.6375 49.0027 22.6375 49.0033 22.6375C49.0039 22.6375 49.0045 22.6375 49.0052 22.6375C49.0058 22.6375 49.0064 22.6375 49.0071 22.6375C49.0077 22.6375 49.0083 22.6375 49.0089 22.6375C49.0096 22.6375 49.0102 22.6375 49.0108 22.6375C49.0114 22.6375 49.0121 22.6375 49.0127 22.6375C49.0133 22.6375 49.0139 22.6375 49.0146 22.6375C49.0152 22.6375 49.0158 22.6375 49.0165 22.6375C49.0171 22.6375 49.0177 22.6375 49.0183 22.6375C49.019 22.6375 49.0196 22.6375 49.0202 22.6375C49.0208 22.6375 49.0215 22.6375 49.0221 22.6375C49.0227 22.6375 49.0233 22.6375 49.024 22.6375C49.0246 22.6375 49.0252 22.6375 49.0258 22.6375C49.0265 22.6375 49.0271 22.6375 49.0277 22.6375C49.0283 22.6375 49.029 22.6375 49.0296 22.6375C49.0302 22.6375 49.0309 22.6375 49.0315 22.6375C49.0321 22.6375 49.0327 22.6375 49.0334 22.6375C49.034 22.6375 49.0346 22.6375 49.0352 22.6375C49.0359 22.6375 49.0365 22.6375 49.0371 22.6375C49.0377 22.6375 49.0384 22.6375 49.039 22.6375C49.0396 22.6375 49.0402 22.6375 49.0409 22.6375C49.0415 22.6375 49.0421 22.6375 49.0427 22.6375C49.0434 22.6375 49.044 22.6375 49.0446 22.6375C49.0452 22.6375 49.0459 22.6375 49.0465 22.6375C49.0471 22.6375 49.0477 22.6375 49.0484 22.6375C49.049 22.6375 49.0496 22.6375 49.0502 22.6375C49.0509 22.6375 49.0515 22.6375 49.0521 22.6375C49.0527 22.6375 49.0534 22.6375 49.054 22.6375C49.0546 22.6375 49.0552 22.6375 49.0559 22.6375C49.0565 22.6375 49.0571 22.6375 49.0577 22.6375C49.0583 22.6375 49.059 22.6375 49.0596 22.6375C49.0602 22.6375 49.0608 22.6375 49.0615 22.6375C49.0621 22.6375 49.0627 22.6375 49.0633 22.6375C49.064 22.6375 49.0646 22.6375 49.0652 22.6375C49.0658 22.6375 49.0665 22.6375 49.0671 22.6375C49.0677 22.6375 49.0683 22.6375 49.069 22.6375C49.0696 22.6375 49.0702 22.6375 49.0708 22.6375C49.0715 22.6375 49.0721 22.6375 49.0727 22.6375C49.0733 22.6375 49.0739 22.6375 49.0746 22.6375C49.0752 22.6375 49.0758 22.6375 49.0764 22.6375C49.0771 22.6375 49.0777 22.6375 49.0783 22.6375C49.0789 22.6375 49.0796 22.6375 49.0802 22.6375C49.0808 22.6375 49.0814 22.6375 49.082 22.6375C49.0827 22.6375 49.0833 22.6375 49.0839 22.6375C49.0845 22.6375 49.0852 22.6375 49.0858 22.6375C49.0864 22.6375 49.087 22.6375 49.0877 22.6375C49.0883 22.6375 49.0889 22.6375 49.0895 22.6375C49.0901 22.6375 49.0908 22.6375 49.0914 22.6375C49.092 22.6375 49.0926 22.6375 49.0933 22.6375C49.0939 22.6375 49.0945 22.6375 49.0951 22.6375C49.0957 22.6375 49.0964 22.6375 49.097 22.6375C49.0976 22.6375 49.0982 22.6375 49.0989 22.6375C49.0995 22.6375 49.1001 22.6375 49.1007 22.6375C49.1013 22.6375 49.102 22.6375 49.1026 22.6375C49.1032 22.6375 49.1038 22.6375 49.1045 22.6375C49.1051 22.6375 49.1057 22.6375 49.1063 22.6375C49.1069 22.6375 49.1076 22.6375 49.1082 22.6375C49.1088 22.6375 49.1094 22.6375 49.1101 22.6375C49.1107 22.6375 49.1113 22.6375 49.1119 22.6375C49.1125 22.6375 49.1132 22.6375 49.1138 22.6375C49.1144 22.6375 49.115 22.6375 49.1156 22.6375C49.1163 22.6375 49.1169 22.6375 49.1175 22.6375C49.1181 22.6375 49.1188 22.6375 49.1194 22.6375C49.12 22.6375 49.1206 22.6375 49.1212 22.6375C49.1219 22.6375 49.1225 22.6375 49.1231 22.6375C49.1237 22.6375 49.1243 22.6375 49.125 22.6375C49.1256 22.6375 49.1262 22.6375 49.1268 22.6375C49.1274 22.6375 49.1281 22.6375 49.1287 22.6375C49.1293 22.6375 49.1299 22.6375 49.1305 22.6375C49.1312 22.6375 49.1318 22.6375 49.1324 22.6375C49.133 22.6375 49.1337 22.6375 49.1343 22.6375C49.1349 22.6375 49.1355 22.6375 49.1361 22.6375C49.1368 22.6375 49.1374 22.6375 49.138 22.6375C49.1386 22.6375 49.1392 22.6375 49.1399 22.6375C49.1405 22.6375 49.1411 22.6375 49.1417 22.6375C49.1423 22.6375 49.143 22.6375 49.1436 22.6375C49.1442 22.6375 49.1448 22.6375 49.1454 22.6375C49.1461 22.6375 49.1467 22.6375 49.1473 22.6375C49.1479 22.6375 49.1485 22.6375 49.1492 22.6375C49.1498 22.6375 49.1504 22.6375 49.151 22.6375C49.1516 22.6375 49.1522 22.6375 49.1529 22.6375C49.1535 22.6375 49.1541 22.6375 49.1547 22.6375C49.1553 22.6375 49.156 22.6375 49.1566 22.6375C49.1572 22.6375 49.1578 22.6375 49.1584 22.6375C49.1591 22.6375 49.1597 22.6375 49.1603 22.6375C49.1609 22.6375 49.1615 22.6375 49.1622 22.6375C49.1628 22.6375 49.1634 22.6375 49.164 22.6375C49.1646 22.6375 49.1652 22.6375 49.1659 22.6375C49.1665 22.6375 49.1671 22.6375 49.1677 22.6375C49.1683 22.6375 49.169 22.6375 49.1696 22.6375C49.1702 22.6375 49.1708 22.6375 49.1714 22.6375C49.1721 22.6375 49.1727 22.6375 49.1733 22.6375C49.1739 22.6375 49.1745 22.6375 49.1751 22.6375C49.1758 22.6375 49.1764 22.6375 49.177 22.6375C49.1776 22.6375 49.1782 22.6375 49.1789 22.6375C49.1795 22.6375 49.1801 22.6375 49.1807 22.6375C49.1813 22.6375 49.1819 22.6375 49.1826 22.6375C49.1832 22.6375 49.1838 22.6375 49.1844 22.6375C49.185 22.6375 49.1856 22.6375 49.1863 22.6375C49.1869 22.6375 49.1875 22.6375 49.1881 22.6375C49.1887 22.6375 49.1894 22.6375 49.19 22.6375C49.1906 22.6375 49.1912 22.6375 49.1918 22.6375C49.1924 22.6375 49.1931 22.6375 49.1937 22.6375C49.1943 22.6375 49.1949 22.6375 49.1955 22.6375C49.1961 22.6375 49.1968 22.6375 49.1974 22.6375C49.198 22.6375 49.1986 22.6375 49.1992 22.6375C49.1999 22.6375 49.2005 22.6375 49.2011 22.6375C49.2017 22.6375 49.2023 22.6375 49.2029 22.6375C49.2036 22.6375 49.2042 22.6375 49.2048 22.6375C49.2054 22.6375 49.206 22.6375 49.2066 22.6375C49.2073 22.6375 49.2079 22.6375 49.2085 22.6375C49.2091 22.6375 49.2097 22.6375 49.2103 22.6375C49.211 22.6375 49.2116 22.6375 49.2122 22.6375C49.2128 22.6375 49.2134 22.6375 49.214 22.6375C49.2146 22.6375 49.2153 22.6375 49.2159 22.6375C49.2165 22.6375 49.2171 22.6375 49.2177 22.6375C49.2183 22.6375 49.219 22.6375 49.2196 22.6375C49.2202 22.6375 49.2208 22.6375 49.2214 22.6375C49.222 22.6375 49.2227 22.6375 49.2233 22.6375C49.2239 22.6375 49.2245 22.6375 49.2251 22.6375C49.2257 22.6375 49.2264 22.6375 49.227 22.6375C49.2276 22.6375 49.2282 22.6375 49.2288 22.6375C49.2294 22.6375 49.23 22.6375 49.2307 22.6375C49.2313 22.6375 49.2319 22.6375 49.2325 22.6375C49.2331 22.6375 49.2337 22.6375 49.2344 22.6375C49.235 22.6375 49.2356 22.6375 49.2362 22.6375C49.2368 22.6375 49.2374 22.6375 49.238 22.6375C49.2387 22.6375 49.2393 22.6375 49.2399 22.6375C49.2405 22.6375 49.2411 22.6375 49.2417 22.6375C49.2423 22.6375 49.243 22.6375 49.2436 22.6375C49.2442 22.6375 49.2448 22.6375 49.2454 22.6375C49.246 22.6375 49.2467 22.6375 49.2473 22.6375C49.2479 22.6375 49.2485 22.6375 49.2491 22.6375C49.2497 22.6375 49.2503 22.6375 49.2509 22.6375C49.2516 22.6375 49.2522 22.6375 49.2528 22.6375C49.2534 22.6375 49.254 22.6375 49.2546 22.6375C49.2553 22.6375 49.2559 22.6375 49.2565 22.6375C49.2571 22.6375 49.2577 22.6375 49.2583 22.6375C49.2589 22.6375 49.2595 22.6375 49.2602 22.6375C49.2608 22.6375 49.2614 22.6375 49.262 22.6375C49.2626 22.6375 49.2632 22.6375 49.2638 22.6375C49.2645 22.6375 49.2651 22.6375 49.2657 22.6375C49.2663 22.6375 49.2669 22.6375 49.2675 22.6375C49.2681 22.6375 49.2688 22.6375 49.2694 22.6375C49.27 22.6375 49.2706 22.6375 49.2712 22.6375C49.2718 22.6375 49.2724 22.6375 49.273 22.6375C49.2737 22.6375 49.2743 22.6375 49.2749 22.6375C49.2755 22.6375 49.2761 22.6375 49.2767 22.6375C49.2773 22.6375 49.278 22.6375 49.2786 22.6375C49.2792 22.6375 49.2798 22.6375 49.2804 22.6375C49.281 22.6375 49.2816 22.6375 49.2822 22.6375C49.2829 22.6375 49.2835 22.6375 49.2841 22.6375C49.2847 22.6375 49.2853 22.6375 49.2859 22.6375C49.2865 22.6375 49.2871 22.6375 49.2878 22.6375C49.2884 22.6375 49.289 22.6375 49.2896 22.6375C49.2902 22.6375 49.2908 22.6375 49.2914 22.6375C49.292 22.6375 49.2927 22.6375 49.2933 22.6375C49.2939 22.6375 49.2945 22.6375 49.2951 22.6375C49.2957 22.6375 49.2963 22.6375 49.2969 22.6375C49.2976 22.6375 49.2982 22.6375 49.2988 22.6375C49.2994 22.6375 49.3 22.6375 49.3006 22.6375C49.3012 22.6375 49.3018 22.6375 49.3024 22.6375C49.3031 22.6375 49.3037 22.6375 49.3043 22.6375C49.3049 22.6375 49.3055 22.6375 49.3061 22.6375C49.3067 22.6375 49.3073 22.6375 49.3079 22.6375C49.3086 22.6375 49.3092 22.6375 49.3098 22.6375C49.3104 22.6375 49.311 22.6375 49.3116 22.6375C49.3122 22.6375 49.3128 22.6375 49.3134 22.6375C49.3141 22.6375 49.3147 22.6375 49.3153 22.6375C49.3159 22.6375 49.3165 22.6375 49.3171 22.6375C49.3177 22.6375 49.3183 22.6375 49.319 22.6375C49.3196 22.6375 49.3202 22.6375 49.3208 22.6375C49.3214 22.6375 49.322 22.6375 49.3226 22.6375C49.3232 22.6375 49.3238 22.6375 49.3244 22.6375C49.3251 22.6375 49.3257 22.6375 49.3263 22.6375C49.3269 22.6375 49.3275 22.6375 49.3281 22.6375C49.3287 22.6375 49.3293 22.6375 49.3299 22.6375C49.3306 22.6375 49.3312 22.6375 49.3318 22.6375C49.3324 22.6375 49.333 22.6375 49.3336 22.6375C49.3342 22.6375 49.3348 22.6375 49.3354 22.6375C49.336 22.6375 49.3367 22.6375 49.3373 22.6375C49.3379 22.6375 49.3385 22.6375 49.3391 22.6375C49.3397 22.6375 49.3403 22.6375 49.3409 22.6375C49.3415 22.6375 49.3421 22.6375 49.3427 22.6375C49.3434 22.6375 49.344 22.6375 49.3446 22.6375C49.3452 22.6375 49.3458 22.6375 49.3464 22.6375C49.347 22.6375 49.3476 22.6375 49.3482 22.6375C49.3488 22.6375 49.3494 22.6375 49.3501 22.6375C49.3507 22.6375 49.3513 22.6375 49.3519 22.6375C49.3525 22.6375 49.3531 22.6375 49.3537 22.6375C49.3543 22.6375 49.3549 22.6375 49.3555 22.6375C49.3562 22.6375 49.3568 22.6375 49.3574 22.6375C49.358 22.6375 49.3586 22.6375 49.3592 22.6375C49.3598 22.6375 49.3604 22.6375 49.361 22.6375C49.3616 22.6375 49.3622 22.6375 49.3628 22.6375C49.3635 22.6375 49.3641 22.6375 49.3647 22.6375C49.3653 22.6375 49.3659 22.6375 49.3665 22.6375C49.3671 22.6375 49.3677 22.6375 49.3683 22.6375C49.3689 22.6375 49.3695 22.6375 49.3701 22.6375C49.3708 22.6375 49.3714 22.6375 49.372 22.6375C49.3726 22.6375 49.3732 22.6375 49.3738 22.6375C49.3744 22.6375 49.375 22.6375 49.3756 22.6375C49.3762 22.6375 49.3768 22.6375 49.3774 22.6375C49.3781 22.6375 49.3787 22.6375 49.3793 22.6375C49.3799 22.6375 49.3805 22.6375 49.3811 22.6375C49.3817 22.6375 49.3823 22.6375 49.3829 22.6375C49.3835 22.6375 49.3841 22.6375 49.3847 22.6375C49.3853 22.6375 49.3859 22.6375 49.3866 22.6375C49.3872 22.6375 49.3878 22.6375 49.3884 22.6375C49.389 22.6375 49.3896 22.6375 49.3902 22.6375C49.3908 22.6375 49.3914 22.6375 49.392 22.6375C49.3926 22.6375 49.3932 22.6375 49.3938 22.6375C49.3944 22.6375 49.3951 22.6375 49.3957 22.6375C49.3963 22.6375 49.3969 22.6375 49.3975 22.6375C49.3981 22.6375 49.3987 22.6375 49.3993 22.6375C49.3999 22.6375 49.4005 22.6375 49.4011 22.6375C49.4017 22.6375 49.4023 22.6375 49.4029 22.6375C49.4035 22.6375 49.4042 22.6375 49.4048 22.6375C49.4054 22.6375 49.406 22.6375 49.4066 22.6375C49.4072 22.6375 49.4078 22.6375 49.4084 22.6375C49.409 22.6375 49.4096 22.6375 49.4102 22.6375C49.4108 22.6375 49.4114 22.6375 49.412 22.6375C49.4126 22.6375 49.4132 22.6375 49.4139 22.6375C49.4145 22.6375 49.4151 22.6375 49.4157 22.6375C49.4163 22.6375 49.4169 22.6375 49.4175 22.6375C49.4181 22.6375 49.4187 22.6375 49.4193 22.6375C49.4199 22.6375 49.4205 22.6375 49.4211 22.6375C49.4217 22.6375 49.4223 22.6375 49.4229 22.6375C49.4235 22.6375 49.4241 22.6375 49.4248 22.6375C49.4254 22.6375 49.426 22.6375 49.4266 22.6375C49.4272 22.6375 49.4278 22.6375 49.4284 22.6375C49.429 22.6375 49.4296 22.6375 49.4302 22.6375C49.4308 22.6375 49.4314 22.6375 49.432 22.6375C49.4326 22.6375 49.4332 22.6375 49.4338 22.6375C49.4344 22.6375 49.435 22.6375 49.4356 22.6375C49.4362 22.6375 49.4369 22.6375 49.4375 22.6375C49.4381 22.6375 49.4387 22.6375 49.4393 22.6375C49.4399 22.6375 49.4405 22.6375 49.4411 22.6375C49.4417 22.6375 49.4423 22.6375 49.4429 22.6375C49.4435 22.6375 49.4441 22.6375 49.4447 22.6375C49.4453 22.6375 49.4459 22.6375 49.4465 22.6375C49.4471 22.6375 49.4477 22.6375 49.4483 22.6375C49.4489 22.6375 49.4495 22.6375 49.4501 22.6375C49.4508 22.6375 49.4514 22.6375 49.452 22.6375C49.4526 22.6375 49.4532 22.6375 49.4538 22.6375C49.4544 22.6375 49.455 22.6375 49.4556 22.6375C49.4562 22.6375 49.4568 22.6375 49.4574 22.6375C49.458 22.6375 49.4586 22.6375 49.4592 22.6375C49.4598 22.6375 49.4604 22.6375 49.461 22.6375C49.4616 22.6375 49.4622 22.6375 49.4628 22.6375C49.4634 22.6375 49.464 22.6375 49.4646 22.6375C49.4652 22.6375 49.4658 22.6375 49.4664 22.6375C49.467 22.6375 49.4676 22.6375 49.4683 22.6375C49.4689 22.6375 49.4695 22.6375 49.4701 22.6375C49.4707 22.6375 49.4713 22.6375 49.4719 22.6375C49.4725 22.6375 49.4731 22.6375 49.4737 22.6375C49.4743 22.6375 49.4749 22.6375 49.4755 22.6375C49.4761 22.6375 49.4767 22.6375 49.4773 22.6375C49.4779 22.6375 49.4785 22.6375 49.4791 22.6375C49.4797 22.6375 49.4803 22.6375 49.4809 22.6375C49.4815 22.6375 49.4821 22.6375 49.4827 22.6375C49.4833 22.6375 49.4839 22.6375 49.4845 22.6375C49.4851 22.6375 49.4857 22.6375 49.4863 22.6375C49.4869 22.6375 49.4875 22.6375 49.4881 22.6375C49.4887 22.6375 49.4893 22.6375 49.4899 22.6375C49.4905 22.6375 49.4911 22.6375 49.4917 22.6375C49.4923 22.6375 49.4929 22.6375 49.4935 22.6375C49.4942 22.6375 49.4948 22.6375 49.4954 22.6375C49.496 22.6375 49.4966 22.6375 49.4972 22.6375C49.4978 22.6375 49.4984 22.6375 49.499 22.6375C49.4996 22.6375 49.5002 22.6375 49.5008 22.6375C49.5014 22.6375 49.502 22.6375 49.5026 22.6375C49.5032 22.6375 49.5038 22.6375 49.5044 22.6375C49.505 22.6375 49.5056 22.6375 49.5062 22.6375C49.5068 22.6375 49.5074 22.6375 49.508 22.6375C49.5086 22.6375 49.5092 22.6375 49.5098 22.6375C49.5104 22.6375 49.511 22.6375 49.5116 22.6375C49.5122 22.6375 49.5128 22.6375 49.5134 22.6375C49.514 22.6375 49.5146 22.6375 49.5152 22.6375C49.5158 22.6375 49.5164 22.6375 49.517 22.6375C49.5176 22.6375 49.5182 22.6375 49.5188 22.6375C49.5194 22.6375 49.52 22.6375 49.5206 22.6375C49.5212 22.6375 49.5218 22.6375 49.5224 22.6375C49.523 22.6375 49.5236 22.6375 49.5242 22.6375C49.5248 22.6375 49.5254 22.6375 49.526 22.6375C49.5266 22.6375 49.5272 22.6375 49.5278 22.6375C49.5284 22.6375 49.529 22.6375 49.5296 22.6375C49.5302 22.6375 49.5308 22.6375 49.5314 22.6375C49.532 22.6375 49.5326 22.6375 49.5332 22.6375C49.5338 22.6375 49.5344 22.6375 49.535 22.6375C49.5356 22.6375 49.5362 22.6375 49.5368 22.6375C49.5374 22.6375 49.538 22.6375 49.5386 22.6375C49.5392 22.6375 49.5398 22.6375 49.5404 22.6375C49.541 22.6375 49.5416 22.6375 49.5422 22.6375C49.5428 22.6375 49.5434 22.6375 49.544 22.6375C49.5446 22.6375 49.5452 22.6375 49.5458 22.6375C49.5464 22.6375 49.547 22.6375 49.5476 22.6375C49.5482 22.6375 49.5488 22.6375 49.5494 22.6375C49.55 22.6375 49.5506 22.6375 49.5512 22.6375C49.5518 22.6375 49.5524 22.6375 49.553 22.6375C49.5536 22.6375 49.5542 22.6375 49.5548 22.6375C49.5554 22.6375 49.556 22.6375 49.5565 22.6375C49.5571 22.6375 49.5577 22.6375 49.5583 22.6375C49.5589 22.6375 49.5595 22.6375 49.5601 22.6375C49.5607 22.6375 49.5613 22.6375 49.5619 22.6375C49.5625 22.6375 49.5631 22.6375 49.5637 22.6375C49.5643 22.6375 49.5649 22.6375 49.5655 22.6375C49.5661 22.6375 49.5667 22.6375 49.5673 22.6375C49.5679 22.6375 49.5685 22.6375 49.5691 22.6375C49.5697 22.6375 49.5703 22.6375 49.5709 22.6375C49.5715 22.6375 49.5721 22.6375 49.5727 22.6375C49.5733 22.6375 49.5739 22.6375 49.5745 22.6375C49.5751 22.6375 49.5757 22.6375 49.5763 22.6375C49.5769 22.6375 49.5775 22.6375 49.5781 22.6375C49.5787 22.6375 49.5793 22.6375 49.5799 22.6375C49.5805 22.6375 49.5811 22.6375 49.5817 22.6375C49.5822 22.6375 49.5828 22.6375 49.5834 22.6375C49.584 22.6375 49.5846 22.6375 49.5852 22.6375C49.5858 22.6375 49.5864 22.6375 49.587 22.6375C49.5876 22.6375 49.5882 22.6375 49.5888 22.6375C49.5894 22.6375 49.59 22.6375 49.5906 22.6375C49.5912 22.6375 49.5918 22.6375 49.5924 22.6375C49.593 22.6375 49.5936 22.6375 49.5942 22.6375C49.5948 22.6375 49.5954 22.6375 49.596 22.6375C49.5966 22.6375 49.5972 22.6375 49.5978 22.6375C49.5984 22.6375 49.599 22.6375 49.5995 22.6375C49.6001 22.6375 49.6007 22.6375 49.6013 22.6375C49.6019 22.6375 49.6025 22.6375 49.6031 22.6375C49.6037 22.6375 49.6043 22.6375 49.6049 22.6375C49.6055 22.6375 49.6061 22.6375 49.6067 22.6375C49.6073 22.6375 49.6079 22.6375 49.6085 22.6375C49.6091 22.6375 49.6097 22.6375 49.6103 22.6375C49.6109 22.6375 49.6115 22.6375 49.6121 22.6375C49.6127 22.6375 49.6132 22.6375 49.6138 22.6375C49.6144 22.6375 49.615 22.6375 49.6156 22.6375C49.6162 22.6375 49.6168 22.6375 49.6174 22.6375C49.618 22.6375 49.6186 22.6375 49.6192 22.6375C49.6198 22.6375 49.6204 22.6375 49.621 22.6375C49.6216 22.6375 49.6222 22.6375 49.6228 22.6375C49.6234 22.6375 49.624 22.6375 49.6246 22.6375C49.6251 22.6375 49.6257 22.6375 49.6263 22.6375C49.6269 22.6375 49.6275 22.6375 49.6281 22.6375C49.6287 22.6375 49.6293 22.6375 49.6299 22.6375C49.6305 22.6375 49.6311 22.6375 49.6317 22.6375C49.6323 22.6375 49.6329 22.6375 49.6335 22.6375C49.6341 22.6375 49.6347 22.6375 49.6353 22.6375C49.6358 22.6375 49.6364 22.6375 49.637 22.6375C49.6376 22.6375 49.6382 22.6375 49.6388 22.6375C49.6394 22.6375 49.64 22.6375 49.6406 22.6375C49.6412 22.6375 49.6418 22.6375 49.6424 22.6375C49.643 22.6375 49.6436 22.6375 49.6442 22.6375C49.6448 22.6375 49.6453 22.6375 49.6459 22.6375C49.6465 22.6375 49.6471 22.6375 49.6477 22.6375C49.6483 22.6375 49.6489 22.6375 49.6495 22.6375C49.6501 22.6375 49.6507 22.6375 49.6513 22.6375C49.6519 22.6375 49.6525 22.6375 49.6531 22.6375C49.6537 22.6375 49.6543 22.6375 49.6548 22.6375C49.6554 22.6375 49.656 22.6375 49.6566 22.6375C49.6572 22.6375 49.6578 22.6375 49.6584 22.6375C49.659 22.6375 49.6596 22.6375 49.6602 22.6375C49.6608 22.6375 49.6614 22.6375 49.662 22.6375C49.6626 22.6375 49.6631 22.6375 49.6637 22.6375C49.6643 22.6375 49.6649 22.6375 49.6655 22.6375C49.6661 22.6375 49.6667 22.6375 49.6673 22.6375C49.6679 22.6375 49.6685 22.6375 49.6691 22.6375C49.6697 22.6375 49.6703 22.6375 49.6708 22.6375C49.6714 22.6375 49.672 22.6375 49.6726 22.6375C49.6732 22.6375 49.6738 22.6375 49.6744 22.6375C49.675 22.6375 49.6756 22.6375 49.6762 22.6375C49.6768 22.6375 49.6774 22.6375 49.6779 22.6375C49.6785 22.6375 49.6791 22.6375 49.6797 22.6375C49.6803 22.6375 49.6809 22.6375 49.6815 22.6375C49.6821 22.6375 49.6827 22.6375 49.6833 22.6375C49.6839 22.6375 49.6845 22.6375 49.685 22.6375C49.6856 22.6375 49.6862 22.6375 49.6868 22.6375C49.6874 22.6375 49.688 22.6375 49.6886 22.6375C49.6892 22.6375 49.6898 22.6375 49.6904 22.6375C49.691 22.6375 49.6916 22.6375 49.6921 22.6375C49.6927 22.6375 49.6933 22.6375 49.6939 22.6375C49.6945 22.6375 49.6951 22.6375 49.6957 22.6375C49.6963 22.6375 49.6969 22.6375 49.6975 22.6375C49.6981 22.6375 49.6986 22.6375 49.6992 22.6375C49.6998 22.6375 49.7004 22.6375 49.701 22.6375C49.7016 22.6375 49.7022 22.6375 49.7028 22.6375C49.7034 22.6375 49.704 22.6375 49.7046 22.6375C49.7051 22.6375 49.7057 22.6375 49.7063 22.6375C49.7069 22.6375 49.7075 22.6375 49.7081 22.6375C49.7087 22.6375 49.7093 22.6375 49.7099 22.6375C49.7105 22.6375 49.711 22.6375 49.7116 22.6375C49.7122 22.6375 49.7128 22.6375 49.7134 22.6375C49.714 22.6375 49.7146 22.6375 49.7152 22.6375C49.7158 22.6375 49.7164 22.6375 49.7169 22.6375C49.7175 22.6375 49.7181 22.6375 49.7187 22.6375C49.7193 22.6375 49.7199 22.6375 49.7205 22.6375C49.7211 22.6375 49.7217 22.6375 49.7222 22.6375C49.7228 22.6375 49.7234 22.6375 49.724 22.6375C49.7246 22.6375 49.7252 22.6375 49.7258 22.6375C49.7264 22.6375 49.727 22.6375 49.7276 22.6375C49.7281 22.6375 49.7287 22.6375 49.7293 22.6375C49.7299 22.6375 49.7305 22.6375 49.7311 22.6375C49.7317 22.6375 49.7323 22.6375 49.7329 22.6375C49.7334 22.6375 49.734 22.6375 49.7346 22.6375C49.7352 22.6375 49.7358 22.6375 49.7364 22.6375C49.737 22.6375 49.7376 22.6375 49.7382 22.6375C49.7387 22.6375 49.7393 22.6375 49.7399 22.6375C49.7405 22.6375 49.7411 22.6375 49.7417 22.6375C49.7423 22.6375 49.7429 22.6375 49.7435 22.6375C49.744 22.6375 49.7446 22.6375 49.7452 22.6375C49.7458 22.6375 49.7464 22.6375 49.747 22.6375C49.7476 22.6375 49.7482 22.6375 49.7487 22.6375C49.7493 22.6375 49.7499 22.6375 49.7505 22.6375C49.7511 22.6375 49.7517 22.6375 49.7523 22.6375C49.7529 22.6375 49.7534 22.6375 49.754 22.6375C49.7546 22.6375 49.7552 22.6375 49.7558 22.6375C49.7564 22.6375 49.757 22.6375 49.7576 22.6375C49.7581 22.6375 49.7587 22.6375 49.7593 22.6375C49.7599 22.6375 49.7605 22.6375 49.7611 22.6375C49.7617 22.6375 49.7623 22.6375 49.7628 22.6375C49.7634 22.6375 49.764 22.6375 49.7646 22.6375C49.7652 22.6375 49.7658 22.6375 49.7664 22.6375C49.767 22.6375 49.7675 22.6375 49.7681 22.6375C49.7687 22.6375 49.7693 22.6375 49.7699 22.6375C49.7705 22.6375 49.7711 22.6375 49.7717 22.6375C49.7722 22.6375 49.7728 22.6375 49.7734 22.6375C49.774 22.6375 49.7746 22.6375 49.7752 22.6375C49.7758 22.6375 49.7763 22.6375 49.7769 22.6375C49.7775 22.6375 49.7781 22.6375 49.7787 22.6375C49.7793 22.6375 49.7799 22.6375 49.7804 22.6375C49.781 22.6375 49.7816 22.6375 49.7822 22.6375C49.7828 22.6375 49.7834 22.6375 49.784 22.6375C49.7846 22.6375 49.7851 22.6375 49.7857 22.6375C49.7863 22.6375 49.7869 22.6375 49.7875 22.6375V20.6375ZM48.85 20.6375C48.6058 20.6375 48.3608 20.6172 48.1144 20.5761L47.7856 22.5489C48.1392 22.6078 48.4941 22.6375 48.85 22.6375V20.6375ZM46.9625 21.4045C46.7576 22.6853 46.5924 24.1118 46.4657 25.6821L48.4592 25.8429C48.5826 24.3133 48.7423 22.9398 48.9374 21.7205L46.9625 21.4045ZM46.4646 25.6971C46.3629 27.2486 46.3125 28.996 46.3125 30.9375H48.3125C48.3125 29.029 48.3621 27.3264 48.4603 25.8279L46.4646 25.6971ZM46.3125 30.9375V43.0875H48.3125V30.9375H46.3125ZM47.3125 44.0875H52.3375V42.0875H47.3125V44.0875ZM51.3919 42.762L50.6044 45.0495L52.4955 45.7005L53.283 43.413L51.3919 42.762ZM51.55 44.375H47.3125V46.375H51.55V44.375ZM46.3125 45.375V54.6H48.3125V45.375H46.3125ZM46.3125 54.6C46.3125 56.6927 46.2876 58.5192 46.238 60.0808L48.237 60.1442C48.2874 58.5559 48.3125 56.7074 48.3125 54.6H46.3125ZM46.238 60.0803C46.1892 61.592 46.0556 62.9285 45.8414 64.0944L47.8085 64.4557C48.0444 63.1715 48.1857 61.733 48.237 60.1448L46.238 60.0803ZM45.8421 64.0907C45.6303 65.2205 45.3156 66.2277 44.9045 67.1185L46.7204 67.9566C47.2093 66.8973 47.5697 65.7295 47.8079 64.4593L45.8421 64.0907ZM44.9087 67.1094C44.5031 67.9657 43.9314 68.8284 43.1811 69.6959L44.6938 71.0042C45.5436 70.0217 46.2218 69.0093 46.7162 67.9656L44.9087 67.1094ZM43.1842 69.6924C41.9353 71.1229 40.1651 72.3303 37.8221 73.2867L38.5779 75.1384C41.1349 74.0947 43.1897 72.7271 44.6908 71.0077L43.1842 69.6924ZM37.8221 73.2867C35.524 74.2247 32.685 74.7125 29.275 74.7125V76.7125C32.865 76.7125 35.976 76.2004 38.5779 75.1384L37.8221 73.2867ZM29.275 74.7125C27.2193 74.7125 25.2688 74.4259 23.4191 73.8567L22.8309 75.7683C24.8812 76.3992 27.0307 76.7125 29.275 76.7125V74.7125ZM23.4191 73.8567C21.5625 73.2855 19.9521 72.4945 18.5765 71.4919L17.3985 73.1082C18.9728 74.2556 20.7875 75.1395 22.8309 75.7683L23.4191 73.8567ZM18.5765 71.4919C17.2073 70.494 16.1281 69.3083 15.3263 67.9336L13.5987 68.9414C14.5468 70.5668 15.8177 71.956 17.3985 73.1082L18.5765 71.4919ZM15.3263 67.9336C14.5451 66.5945 14.15 65.1074 14.15 63.45H12.15C12.15 65.4427 12.6299 67.2805 13.5987 68.9414L15.3263 67.9336ZM14.15 63.45C14.15 62.2051 14.3458 61.1202 14.7174 60.1802L12.8575 59.4449C12.3792 60.6548 12.15 61.9949 12.15 63.45H14.15ZM14.7099 60.1987C15.1234 59.211 15.6463 58.3505 16.275 57.6095L14.75 56.3155C13.9787 57.2246 13.3516 58.264 12.865 59.4264L14.7099 60.1987ZM16.2844 57.5982C16.9349 56.8083 17.6366 56.1428 18.3882 55.5963L17.2118 53.9788C16.3133 54.6322 15.49 55.4167 14.7406 56.3268L16.2844 57.5982ZM18.3767 55.6045C19.192 55.029 19.9738 54.5561 20.7222 54.1819L19.8278 52.3931C18.9762 52.8189 18.108 53.3461 17.2233 53.9706L18.3767 55.6045ZM20.7222 54.1819C21.4942 53.796 22.1782 53.5023 22.7771 53.295L22.1229 51.405C21.4217 51.6477 20.6558 51.9791 19.8278 52.3931L20.7222 54.1819ZM22.7771 53.295C23.4209 53.0721 23.8668 52.9368 24.1373 52.8744L23.6876 50.9256C23.3082 51.0132 22.7791 51.1779 22.1229 51.405L22.7771 53.295ZM23.0137 52.3384L23.7637 53.8759L25.5613 52.9991L24.8113 51.4616L23.0137 52.3384ZM24.1999 52.5509C23.5691 52.8801 22.8767 53.3214 22.126 53.8651L23.299 55.485C23.9982 54.9786 24.6059 54.595 25.125 54.3241L24.1999 52.5509ZM22.1312 53.8613C21.3406 54.426 20.6107 55.147 19.937 56.0094L21.513 57.2407C22.0893 56.5031 22.6844 55.924 23.2937 55.4888L22.1312 53.8613ZM19.9466 55.9973C19.2428 56.8699 18.6695 57.9174 18.2145 59.1216L20.0855 59.8284C20.4805 58.7827 20.9571 57.9301 21.5034 57.2528L19.9466 55.9973ZM18.2145 59.1216C17.7371 60.3853 17.5125 61.8353 17.5125 63.45H19.5125C19.5125 62.0148 19.7128 60.8147 20.0855 59.8284L18.2145 59.1216ZM17.5125 63.45C17.5125 65.1888 17.8071 66.7866 18.4165 68.2272L20.2584 67.4479C19.7679 66.2884 19.5125 64.9612 19.5125 63.45H17.5125ZM18.4193 68.2336C19.022 69.631 19.8641 70.8355 20.9467 71.8348L22.3033 70.3652C21.4358 69.5645 20.7529 68.5941 20.2557 67.4414L18.4193 68.2336ZM20.9665 71.8526C22.0694 72.8176 23.3574 73.5544 24.8181 74.0683L25.4819 72.1817C24.2426 71.7457 23.1806 71.1324 22.2835 70.3474L20.9665 71.8526ZM24.8389 74.0754C26.3259 74.562 27.9322 74.8 29.65 74.8V72.8C28.1178 72.8 26.7241 72.588 25.461 72.1746L24.8389 74.0754ZM29.65 74.8C31.5662 74.8 33.3374 74.5375 34.9537 73.9987L34.3213 72.1013C32.9376 72.5626 31.3838 72.8 29.65 72.8V74.8ZM34.949 74.0002C36.6361 73.4471 38.0833 72.5154 39.2753 71.2125L37.7997 69.8625C36.8417 70.9096 35.6889 71.6529 34.3259 72.0998L34.949 74.0002ZM39.2753 71.2125C40.4742 69.902 41.374 68.1972 42.0058 66.1441L40.0942 65.5559C39.5259 67.4028 38.7507 68.823 37.7997 69.8625L39.2753 71.2125ZM42.0058 66.1441C42.6445 64.068 42.95 61.5364 42.95 58.575H40.95C40.95 61.4137 40.6554 63.732 40.0942 65.5559L42.0058 66.1441ZM42.95 58.575V45.375H40.95V58.575H42.95ZM41.95 44.375H34.675V46.375H41.95V44.375ZM35.6252 45.6866L36.3752 43.3991L34.4748 42.776L33.7248 45.0635L35.6252 45.6866ZM35.425 44.0875H41.95V42.0875H35.425V44.0875ZM54.25 11.9C52.8552 11.9 51.5906 12.4195 50.4818 13.3825L51.7932 14.8925C52.5843 14.2055 53.3948 13.9 54.25 13.9V11.9ZM50.4933 13.3726C49.3339 14.349 48.4717 15.9325 47.8227 17.9573L49.7273 18.5677C50.3283 16.6926 51.0411 15.526 51.7816 14.9024L50.4933 13.3726ZM48.6157 19.2498C49.408 19.3775 50.1769 19.4801 50.9221 19.5572L51.1279 17.5678C50.4231 17.4949 49.6919 17.3975 48.9342 17.2753L48.6157 19.2498ZM50.9221 19.5572C51.6772 19.6353 52.3993 19.675 53.0875 19.675V17.675C52.4757 17.675 51.8227 17.6397 51.1279 17.5678L50.9221 19.5572ZM53.0875 19.675C53.8435 19.675 54.5424 19.5777 55.1582 19.3509L54.4668 17.4742C54.1325 17.5973 53.6815 17.675 53.0875 17.675V19.675ZM55.1839 19.341C55.777 19.1037 56.3018 18.7874 56.7196 18.3696L55.3054 16.9554C55.1232 17.1376 54.8479 17.3213 54.4411 17.484L55.1839 19.341ZM56.7196 18.3696C57.1104 17.9788 57.4131 17.5285 57.616 17.0214L55.759 16.2786C55.6618 16.5216 55.5145 16.7463 55.3054 16.9554L56.7196 18.3696ZM57.616 17.0214C57.8095 16.5375 57.9125 16.0368 57.9125 15.525H55.9125C55.9125 15.7633 55.8654 16.0126 55.759 16.2786L57.616 17.0214ZM57.9125 15.525C57.9125 14.5423 57.5624 13.6732 56.8696 12.9804L55.4554 14.3946C55.7626 14.7018 55.9125 15.0577 55.9125 15.525H57.9125ZM56.8866 12.9979C56.1838 12.2599 55.2776 11.9 54.25 11.9V13.9C54.7724 13.9 55.1411 14.0651 55.4383 14.3772L56.8866 12.9979Z" fill="#2E2E2E"/>
</g>
<defs>
<filter id="filter0_d" x="0" y="0" width="68" height="68" filterUnits="userSpaceOnUse" color-interpolation-filters="sRGB">
<feFlood flood-opacity="0" result="BackgroundImageFix"/>
<feColorMatrix in="SourceAlpha" type="matrix" values="0 0 0 0 0 0 0 0 0 0 0 0 0 0 0 0 0 0 127 0"/>
<feOffset dy="2"/>
<feGaussianBlur stdDeviation="2"/>
<feColorMatrix type="matrix" values="0 0 0 0 0.180392 0 0 0 0 0.180392 0 0 0 0 0.180392 0 0 0 0.25 0"/>
<feBlend mode="normal" in2="BackgroundImageFix" result="effect1_dropShadow"/>
<feBlend mode="normal" in="SourceGraphic" in2="effect1_dropShadow" result="shape"/>
</filter>
<filter id="filter1_d" x="3.16248" y="7.83751" width="61.075" height="74.875" filterUnits="userSpaceOnUse" color-interpolation-filters="sRGB">
<feFlood flood-opacity="0" result="BackgroundImageFix"/>
<feColorMatrix in="SourceAlpha" type="matrix" values="0 0 0 0 0 0 0 0 0 0 0 0 0 0 0 0 0 0 127 0"/>
<feOffset dy="2"/>
<feGaussianBlur stdDeviation="2"/>
<feColorMatrix type="matrix" values="0 0 0 0 0.180392 0 0 0 0 0.180392 0 0 0 0 0.180392 0 0 0 0.4 0"/>
<feBlend mode="normal" in2="BackgroundImageFix" result="effect1_dropShadow"/>
<feBlend mode="normal" in="SourceGraphic" in2="effect1_dropShadow" result="shape"/>
</filter>
</defs>
</svg>
